<svg width="216" height="60" viewBox="0 0 216 60" fill="none" xmlns="http://www.w3.org/2000/svg">
<rect x="0.5" y="0.5" width="215" height="59" rx="7.5" fill="black" stroke="#A6A6A6"/>
<path d="M44.8498 30.9921C44.8658 29.7963 45.1961 28.6237 45.8101 27.5836C46.4241 26.5435 47.3017 25.6696 48.3613 25.0432C47.6882 24.1188 46.8001 23.3581 45.7677 22.8214C44.7353 22.2848 43.587 21.987 42.414 21.9517C39.9117 21.6992 37.4858 23.3914 36.2107 23.3914C34.9109 23.3914 32.9477 21.9768 30.8336 22.0186C29.4661 22.0611 28.1334 22.4434 26.9653 23.1284C25.7973 23.8133 24.8336 24.7775 24.1683 25.927C21.2864 30.7246 23.4361 37.7753 26.1967 41.6532C27.5779 43.5522 29.1921 45.6733 31.3043 45.5981C33.3712 45.5157 34.1432 44.3308 36.6381 44.3308C39.1099 44.3308 39.8341 45.5981 41.9892 45.5503C44.207 45.5157 45.6044 43.6429 46.9372 41.726C47.9296 40.373 48.6932 38.8775 49.1998 37.2951C47.9113 36.7711 46.8117 35.894 46.0381 34.7732C45.2646 33.6523 44.8513 32.3373 44.8498 30.9921Z" fill="white"/>
<path d="M40.7792 19.4012C41.9885 18.0053 42.5843 16.2113 42.44 14.3999C40.5925 14.5865 38.8859 15.4355 37.6603 16.7777C37.061 17.4335 36.6021 18.1963 36.3096 19.0227C36.0172 19.8491 35.897 20.7228 35.956 21.5939C36.8801 21.603 37.7943 21.4104 38.6297 21.0306C39.4652 20.6508 40.2001 20.0937 40.7792 19.4012Z" fill="white"/>
<path d="M75.1827 41.6168H68.2208L66.5489 46.2581H63.6001L70.1943 29.0862H73.258L79.8523 46.2581H76.8532L75.1827 41.6168ZM68.9418 39.475H74.4603L71.7399 31.9423H71.6638L68.9418 39.475Z" fill="white"/>
<path d="M94.0934 39.9991C94.0934 43.8896 91.8786 46.3893 88.5362 46.3893C87.6895 46.4309 86.8475 46.2475 86.1065 45.8601C85.3655 45.4728 84.7555 44.897 84.3464 44.1989H84.2832V50.4H81.5498V33.7385H84.1956V35.8209H84.2459C84.6738 35.1261 85.2941 34.5533 86.0407 34.1636C86.7873 33.7738 87.6324 33.5817 88.4859 33.6075C91.8656 33.6075 94.0934 36.1193 94.0934 39.9991ZM91.2839 39.9991C91.2839 37.4644 89.8907 35.7979 87.7649 35.7979C85.6764 35.7979 84.2717 37.4994 84.2717 39.9991C84.2717 42.5217 85.6764 44.211 87.7649 44.211C89.8907 44.211 91.2839 42.5568 91.2839 39.9991Z" fill="white"/>
<path d="M108.75 39.9991C108.75 43.8896 106.535 46.3892 103.193 46.3892C102.346 46.4309 101.504 46.2475 100.763 45.8601C100.022 45.4727 99.4123 44.897 99.0031 44.1988H98.9399V50.4H96.2065V33.7385H98.8523V35.8209H98.9025C99.3305 35.126 99.9508 34.5533 100.697 34.1635C101.444 33.7738 102.289 33.5816 103.143 33.6075C106.522 33.6075 108.75 36.1193 108.75 39.9991ZM105.941 39.9991C105.941 37.4643 104.547 35.7979 102.422 35.7979C100.333 35.7979 98.9284 37.4994 98.9284 39.9991C98.9284 42.5216 100.333 44.211 102.422 44.211C104.547 44.211 105.941 42.5568 105.941 39.9991Z" fill="white"/>
<path d="M118.437 41.4738C118.639 43.1767 120.399 44.2948 122.803 44.2948C125.107 44.2948 126.765 43.1766 126.765 41.6412C126.765 40.3083 125.765 39.5102 123.398 38.9633L121.031 38.4272C117.677 37.6656 116.12 36.1909 116.12 33.798C116.12 30.8351 118.866 28.8 122.766 28.8C126.625 28.8 129.271 30.8351 129.36 33.798H126.601C126.436 32.0843 124.929 31.0499 122.727 31.0499C120.525 31.0499 119.018 32.0964 119.018 33.6197C119.018 34.8337 119.981 35.5481 122.335 36.095L124.347 36.5595C128.095 37.3927 129.652 38.808 129.652 41.3197C129.652 44.5324 126.93 46.5445 122.601 46.5445C118.55 46.5445 115.815 44.5796 115.639 41.4737L118.437 41.4738Z" fill="white"/>
<path d="M135.551 30.7759V33.7387H138.083V35.7738H135.551V42.6758C135.551 43.748 136.058 44.2477 137.171 44.2477C137.471 44.2427 137.772 44.2229 138.07 44.1882V46.2111C137.569 46.299 137.061 46.3389 136.552 46.33C133.856 46.33 132.804 45.3779 132.804 42.9499V35.7738H130.868V33.7387H132.804V30.7759H135.551Z" fill="white"/>
<path d="M139.549 39.9992C139.549 36.06 142.017 33.5847 145.865 33.5847C149.726 33.5847 152.182 36.06 152.182 39.9992C152.182 43.9492 149.739 46.4137 145.865 46.4137C141.992 46.4137 139.549 43.9492 139.549 39.9992ZM149.397 39.9992C149.397 37.297 148.08 35.7022 145.865 35.7022C143.65 35.7022 142.334 37.3092 142.334 39.9992C142.334 42.7122 143.65 44.2949 145.865 44.2949C148.08 44.2949 149.397 42.7122 149.397 39.9992Z" fill="white"/>
<path d="M154.436 33.7384H157.043V35.8693H157.106C157.282 35.2038 157.697 34.6157 158.28 34.2037C158.863 33.7918 159.58 33.5812 160.309 33.6074C160.624 33.6064 160.938 33.6385 161.245 33.7033V36.107C160.848 35.9928 160.433 35.9403 160.017 35.9517C159.62 35.9366 159.224 36.0024 158.857 36.1447C158.489 36.287 158.159 36.5023 157.888 36.776C157.618 37.0496 157.413 37.3751 157.289 37.73C157.165 38.0849 157.124 38.4609 157.169 38.8322V46.2581H154.436L154.436 33.7384Z" fill="white"/>
<path d="M173.848 42.5812C173.48 44.854 171.126 46.4137 168.114 46.4137C164.24 46.4137 161.836 43.9735 161.836 40.0586C161.836 36.1316 164.253 33.5847 167.999 33.5847C171.683 33.5847 174 35.9641 174 39.7602V40.6407H164.595V40.7959C164.552 41.2567 164.613 41.7209 164.775 42.1576C164.937 42.5944 165.196 42.9937 165.535 43.3291C165.874 43.6645 166.285 43.9283 166.74 44.103C167.196 44.2776 167.686 44.3592 168.177 44.3421C168.823 44.399 169.472 44.2584 170.026 43.9411C170.58 43.6238 171.01 43.1469 171.253 42.5812L173.848 42.5812ZM164.608 38.8446H171.266C171.29 38.4303 171.223 38.0157 171.069 37.6269C170.915 37.238 170.678 36.8832 170.371 36.5849C170.064 36.2865 169.695 36.051 169.287 35.893C168.879 35.7351 168.441 35.6581 167.999 35.6671C167.554 35.6646 167.113 35.745 166.701 35.9036C166.289 36.0623 165.915 36.2961 165.599 36.5915C165.284 36.8869 165.034 37.2381 164.864 37.6248C164.694 38.0116 164.607 38.4261 164.608 38.8446Z" fill="white"/>
<path d="M68.209 17.8852H66.9926V17.0203H68.1598C68.6754 17.0203 69.0926 16.9477 69.4113 16.8023C69.7301 16.657 69.9621 16.4555 70.1074 16.1977C70.2527 15.9398 70.3254 15.6422 70.3254 15.3047C70.3254 14.9813 70.2457 14.6859 70.0863 14.4188C69.927 14.1469 69.6809 13.9313 69.348 13.7719C69.0152 13.6078 68.5863 13.5258 68.0613 13.5258C67.6676 13.5258 67.3113 13.6008 66.9926 13.7508C66.6738 13.8961 66.4207 14.1 66.2332 14.3625C66.0457 14.6203 65.952 14.918 65.952 15.2555H64.5949C64.5949 14.8195 64.6863 14.4281 64.8691 14.0813C65.052 13.7297 65.3027 13.432 65.6215 13.1883C65.9402 12.9398 66.3082 12.75 66.7254 12.6188C67.1473 12.4875 67.5926 12.4219 68.0613 12.4219C68.6098 12.4219 69.1066 12.4852 69.552 12.6117C69.9973 12.7336 70.3793 12.9164 70.698 13.1602C71.0168 13.4039 71.2605 13.7063 71.4293 14.0672C71.598 14.4281 71.6824 14.8477 71.6824 15.3258C71.6824 15.6773 71.6004 16.0078 71.4363 16.3172C71.2723 16.6266 71.0379 16.8984 70.7332 17.1328C70.4285 17.3672 70.0629 17.5523 69.6363 17.6883C69.2098 17.8195 68.734 17.8852 68.209 17.8852ZM66.9926 17.2875H68.209C68.7855 17.2875 69.2988 17.3461 69.7488 17.4633C70.1988 17.5805 70.5785 17.7516 70.8879 17.9766C71.1973 18.2016 71.4316 18.4805 71.591 18.8133C71.7551 19.1414 71.8371 19.5188 71.8371 19.9453C71.8371 20.4234 71.7434 20.8477 71.5559 21.218C71.373 21.5883 71.1129 21.9023 70.7754 22.1602C70.4379 22.418 70.0371 22.6125 69.573 22.7438C69.1137 22.875 68.6098 22.9406 68.0613 22.9406C67.6207 22.9406 67.1848 22.8844 66.7535 22.7719C66.327 22.6547 65.9402 22.4766 65.5934 22.2375C65.2465 21.9938 64.9676 21.6844 64.7566 21.3094C64.5504 20.9344 64.4473 20.4844 64.4473 19.9594H65.8043C65.8043 20.3016 65.898 20.6156 66.0855 20.9016C66.2777 21.1875 66.5426 21.4172 66.8801 21.5906C67.2176 21.7594 67.6113 21.8438 68.0613 21.8438C68.577 21.8438 69.0129 21.7641 69.3691 21.6047C69.7301 21.4406 70.0043 21.218 70.1918 20.9367C70.384 20.6508 70.4801 20.3297 70.4801 19.9734C70.4801 19.6594 70.4285 19.3875 70.3254 19.1578C70.227 18.9234 70.0793 18.7313 69.8824 18.5813C69.6902 18.4313 69.4488 18.3211 69.1582 18.2508C68.8723 18.1758 68.5395 18.1383 68.1598 18.1383H66.9926V17.2875Z" fill="white"/>
<path d="M77.9889 13.4695L74.5998 22.8H73.2147L77.117 12.5625H78.01L77.9889 13.4695ZM80.8295 22.8L77.4334 13.4695L77.4123 12.5625H78.3053L82.2217 22.8H80.8295ZM80.6537 19.0102V20.1211H74.9022V19.0102H80.6537Z" fill="white"/>
<path d="M87.818 18.0117H85.2235L85.2094 16.9219H87.5649C87.954 16.9219 88.2938 16.8563 88.5844 16.725C88.875 16.5938 89.1 16.4063 89.2594 16.1625C89.4235 15.9141 89.5055 15.6188 89.5055 15.2766C89.5055 14.9016 89.4329 14.5969 89.2875 14.3625C89.1469 14.1234 88.929 13.95 88.6336 13.8422C88.343 13.7297 87.9727 13.6734 87.5227 13.6734H85.5258V22.8H84.1688V12.5625H87.5227C88.0477 12.5625 88.5165 12.6164 88.929 12.7242C89.3414 12.8273 89.6907 12.9914 89.9766 13.2164C90.2672 13.4367 90.4875 13.718 90.6375 14.0602C90.7875 14.4023 90.8625 14.8125 90.8625 15.2906C90.8625 15.7125 90.7547 16.0945 90.5391 16.4367C90.3235 16.7742 90.0235 17.0508 89.6391 17.2664C89.2594 17.482 88.8141 17.6203 88.3032 17.6813L87.818 18.0117ZM87.7547 22.8H84.6891L85.4555 21.6961H87.7547C88.186 21.6961 88.5516 21.6211 88.8516 21.4711C89.1563 21.3211 89.3883 21.1102 89.5477 20.8383C89.7071 20.5617 89.7868 20.2359 89.7868 19.8609C89.7868 19.4813 89.7188 19.1531 89.5829 18.8766C89.4469 18.6 89.2336 18.3867 88.943 18.2367C88.6524 18.0867 88.2774 18.0117 87.818 18.0117H85.8844L85.8985 16.9219H88.5422L88.8305 17.3156C89.3227 17.3578 89.7399 17.4984 90.0821 17.7375C90.4243 17.9719 90.6844 18.2719 90.8625 18.6375C91.0454 19.0031 91.1368 19.4063 91.1368 19.8469C91.1368 20.4844 90.9961 21.0234 90.7149 21.4641C90.4383 21.9 90.0469 22.2328 89.5407 22.4625C89.0344 22.6875 88.4391 22.8 87.7547 22.8Z" fill="white"/>
<path d="M97.5065 13.4695L94.1175 22.8H92.7323L96.6346 12.5625H97.5276L97.5065 13.4695ZM100.347 22.8L96.951 13.4695L96.93 12.5625H97.8229L101.739 22.8H100.347ZM100.171 19.0102V20.1211H94.4198V19.0102H100.171Z" fill="white"/>
<path d="M110.373 16.9641V18.068H104.833V16.9641H110.373ZM105.043 12.5625V22.8H103.686V12.5625H105.043ZM111.554 12.5625V22.8H110.204V12.5625H111.554Z" fill="white"/>
<path d="M118.114 12.5625V22.8H116.778V12.5625H118.114ZM121.405 12.5625V13.6734H113.494V12.5625H121.405Z" fill="white"/>
<path d="M126.727 13.4695L123.338 22.8H121.952L125.855 12.5625H126.748L126.727 13.4695ZM129.567 22.8L126.171 13.4695L126.15 12.5625H127.043L130.96 22.8H129.567ZM129.392 19.0102V20.1211H123.64V19.0102H129.392Z" fill="white"/>
<path d="M135.839 18.1242L132.182 12.5625H133.771L136.493 16.9992H138.419L138.201 18.1242H135.839ZM136.57 18.0188L133.596 22.8H131.908L135.712 16.8516L136.57 18.0188ZM139.003 12.5625V22.8H137.66V12.5625H139.003ZM144.431 12.5625L140.761 18.1242H138.468L138.257 16.9992H140.114L142.835 12.5625H144.431ZM143.011 22.8L140.043 18.0188L140.908 16.8516L144.698 22.8H143.011Z" fill="white"/>
<path d="M147.974 20.4516L153.015 12.5625H154.372V22.8H153.015V14.9039L147.974 22.8H146.624V12.5625H147.974V20.4516Z" fill="white"/>
<path d="M160.988 12.5625V22.8H159.652V12.5625H160.988ZM164.279 12.5625V13.6734H156.369V12.5625H164.279Z" fill="white"/>
<path d="M167.787 20.4516L172.828 12.5625H174.185V22.8H172.828V14.9039L167.787 22.8H166.437V12.5625H167.787V20.4516Z" fill="white"/>
<path d="M184.513 17.8852H183.297V17.0203H184.464C184.98 17.0203 185.397 16.9477 185.715 16.8023C186.034 16.657 186.266 16.4555 186.412 16.1977C186.557 15.9398 186.63 15.6422 186.63 15.3047C186.63 14.9813 186.55 14.6859 186.391 14.4188C186.231 14.1469 185.985 13.9313 185.652 13.7719C185.319 13.6078 184.891 13.5258 184.366 13.5258C183.972 13.5258 183.616 13.6008 183.297 13.7508C182.978 13.8961 182.725 14.1 182.537 14.3625C182.35 14.6203 182.256 14.918 182.256 15.2555H180.899C180.899 14.8195 180.991 14.4281 181.173 14.0813C181.356 13.7297 181.607 13.432 181.926 13.1883C182.244 12.9398 182.612 12.75 183.03 12.6188C183.451 12.4875 183.897 12.4219 184.366 12.4219C184.914 12.4219 185.411 12.4852 185.856 12.6117C186.301 12.7336 186.683 12.9164 187.002 13.1602C187.321 13.4039 187.565 13.7063 187.733 14.0672C187.902 14.4281 187.987 14.8477 187.987 15.3258C187.987 15.6773 187.905 16.0078 187.741 16.3172C187.576 16.6266 187.342 16.8984 187.037 17.1328C186.733 17.3672 186.367 17.5523 185.94 17.6883C185.514 17.8195 185.038 17.8852 184.513 17.8852ZM183.297 17.2875H184.513C185.09 17.2875 185.603 17.3461 186.053 17.4633C186.503 17.5805 186.883 17.7516 187.192 17.9766C187.501 18.2016 187.736 18.4805 187.895 18.8133C188.059 19.1414 188.141 19.5188 188.141 19.9453C188.141 20.4234 188.048 20.8477 187.86 21.218C187.677 21.5883 187.417 21.9023 187.08 22.1602C186.742 22.418 186.341 22.6125 185.877 22.7438C185.418 22.875 184.914 22.9406 184.366 22.9406C183.925 22.9406 183.489 22.8844 183.058 22.7719C182.631 22.6547 182.244 22.4766 181.898 22.2375C181.551 21.9938 181.272 21.6844 181.061 21.3094C180.855 20.9344 180.751 20.4844 180.751 19.9594H182.108C182.108 20.3016 182.202 20.6156 182.39 20.9016C182.582 21.1875 182.847 21.4172 183.184 21.5906C183.522 21.7594 183.916 21.8438 184.366 21.8438C184.881 21.8438 185.317 21.7641 185.673 21.6047C186.034 21.4406 186.308 21.218 186.496 20.9367C186.688 20.6508 186.784 20.3297 186.784 19.9734C186.784 19.6594 186.733 19.3875 186.63 19.1578C186.531 18.9234 186.383 18.7313 186.187 18.5813C185.994 18.4313 185.753 18.3211 185.462 18.2508C185.176 18.1758 184.844 18.1383 184.464 18.1383H183.297V17.2875Z" fill="white"/>
</svg>
