<svg width="180" height="60" viewBox="0 0 180 60" fill="none" xmlns="http://www.w3.org/2000/svg">
<path d="M165.202 0.000194999H14.302C13.7519 0.000194999 13.2085 0.000194999 12.6599 0.00319499C12.2007 0.00619498 11.7451 0.01491 11.2815 0.0222449C10.2742 0.0340976 9.26938 0.122709 8.27562 0.287309C7.28326 0.455492 6.32199 0.772566 5.42431 1.22781C4.52773 1.6869 3.70851 2.28344 2.99635 2.99579C2.28045 3.70614 1.68369 4.5272 1.22902 5.42742C0.773098 6.32584 0.456959 7.28858 0.291524 8.28239C0.124516 9.27494 0.0346475 10.2789 0.0227249 11.2854C0.00880497 11.7453 0.00733498 12.2067 0 12.6667V47.3379C0.00733498 47.8037 0.00880497 48.2549 0.0227249 48.7208C0.0346511 49.7272 0.12452 50.7311 0.291524 51.7236C0.456502 52.718 0.77266 53.6813 1.22902 54.5801C1.68348 55.4774 2.28032 56.2951 2.99635 57.0015C3.70581 57.717 4.52556 58.314 5.42431 58.7696C6.32198 59.226 7.28315 59.545 8.27562 59.7158C9.26955 59.879 10.2743 59.9677 11.2815 59.9809C11.7451 59.9911 12.2007 59.997 12.6599 59.997C13.2085 60 13.752 60 14.302 60H165.202C165.741 60 166.289 60 166.828 59.997C167.285 59.997 167.753 59.9911 168.21 59.9809C169.216 59.9684 170.219 59.8797 171.21 59.7158C172.206 59.5438 173.171 59.2249 174.073 58.7696C174.971 58.3137 175.79 57.7168 176.499 57.0015C177.213 56.2923 177.811 55.4752 178.271 54.5801C178.724 53.6807 179.037 52.7174 179.2 51.7236C179.367 50.731 179.46 49.7273 179.478 48.7208C179.484 48.2549 179.484 47.8037 179.484 47.3379C179.496 46.793 179.496 46.251 179.496 45.6972V14.3043C179.496 13.755 179.496 13.2101 179.484 12.6667C179.484 12.2067 179.484 11.7453 179.478 11.2853C179.46 10.2788 179.367 9.27502 179.2 8.28233C179.037 7.28909 178.723 6.32643 178.271 5.42736C177.345 3.62298 175.877 2.15423 174.073 1.22767C173.171 0.773544 172.206 0.456554 171.21 0.287174C170.219 0.121849 169.216 0.0332065 168.21 0.0220349C167.753 0.014715 167.285 0.00592498 166.828 0.00299999C166.289 0 165.741 0 165.202 0V0.000194999Z" fill="#A6A6A6"/>
<path d="M12.6673 58.6873C12.2102 58.6873 11.7643 58.6815 11.3108 58.6713C10.3715 58.659 9.43438 58.5772 8.50713 58.4266C7.64252 58.2777 6.80494 58.0007 6.02203 57.6048C5.2463 57.2121 4.53876 56.6972 3.92654 56.0799C3.30545 55.4698 2.78837 54.7622 2.39578 53.9851C1.99886 53.203 1.72417 52.3647 1.58128 51.4993C1.42697 50.5695 1.34348 49.6293 1.33153 48.6868C1.32202 48.3705 1.30957 47.3172 1.30957 47.3172V12.6665C1.30957 12.6665 1.32283 11.6294 1.33161 11.3247C1.34304 10.3837 1.42605 9.44495 1.5799 8.51657C1.72306 7.64885 1.99796 6.8081 2.39509 6.02343C2.78623 5.2469 3.30045 4.53878 3.91779 3.92651C4.53444 3.30843 5.24424 2.7909 6.0213 2.39281C6.80241 1.99814 7.6384 1.7231 8.50127 1.5769C9.43156 1.42475 10.3719 1.34249 11.3145 1.33081L12.668 1.3125H166.82L168.19 1.33155C169.124 1.34265 170.056 1.42417 170.978 1.57543C171.849 1.72346 172.694 2.00042 173.484 2.39721C175.041 3.19947 176.307 4.46873 177.106 6.02709C177.497 6.80635 177.768 7.64024 177.909 8.50046C178.065 9.43646 178.152 10.3826 178.17 11.3313C178.174 11.7561 178.174 12.2124 178.174 12.6665C178.186 13.229 178.186 13.7644 178.186 14.3042V45.6971C178.186 46.242 178.186 46.7738 178.174 47.3099C178.174 47.7976 178.174 48.2445 178.168 48.7044C178.151 49.6362 178.065 50.5654 177.912 51.4846C177.772 52.3562 177.499 53.2011 177.102 53.9896C176.707 54.7583 176.193 55.4597 175.579 56.0682C174.966 56.6888 174.257 57.2067 173.48 57.6019C172.692 58.0009 171.848 58.2789 170.978 58.4266C170.05 58.5781 169.113 58.6598 168.174 58.6713C167.734 58.6815 167.274 58.6873 166.828 58.6873L165.202 58.6903L12.6673 58.6873Z" fill="black"/>
<path d="M37.152 30.4505C37.1681 29.1985 37.5006 27.9709 38.1187 26.882C38.7367 25.7931 39.6201 24.8782 40.6868 24.2224C40.0092 23.2547 39.1153 22.4582 38.076 21.8964C37.0368 21.3346 35.8809 21.0228 34.7001 20.9859C32.1812 20.7215 29.7393 22.4931 28.4557 22.4931C27.1473 22.4931 25.1711 21.0121 23.043 21.0559C21.6665 21.1004 20.325 21.5007 19.1492 22.2178C17.9733 22.9348 17.0033 23.9443 16.3336 25.1477C13.4326 30.1703 15.5965 37.5519 18.3754 41.6118C19.7658 43.5998 21.3907 45.8205 23.5169 45.7417C25.5974 45.6554 26.3745 44.415 28.8859 44.415C31.3741 44.415 32.1031 45.7417 34.2724 45.6916C36.505 45.6554 37.9116 43.6948 39.2532 41.6879C40.2521 40.2714 41.0208 38.7058 41.5308 37.0492C40.2337 36.5006 39.1269 35.5823 38.3482 34.4089C37.5695 33.2355 37.1535 31.8588 37.152 30.4505Z" fill="white"/>
<path d="M33.0534 18.317C34.2707 16.8557 34.8704 14.9774 34.7252 13.0811C32.8654 13.2764 31.1476 14.1652 29.9138 15.5705C29.3106 16.257 28.8486 17.0556 28.5543 17.9208C28.2599 18.7859 28.1389 19.7006 28.1983 20.6125C29.1285 20.6221 30.0487 20.4205 30.8897 20.0229C31.7307 19.6252 32.4705 19.042 33.0534 18.317Z" fill="white"/>
<path d="M63.4509 40.7095H56.3508L54.6457 45.7441H51.6384L58.3635 27.1172H61.488L68.2131 45.7441H65.1545L63.4509 40.7095ZM57.0862 38.3862H62.7141L59.9397 30.2154H59.8621L57.0862 38.3862Z" fill="white"/>
<path d="M82.7356 38.9542C82.7356 43.1744 80.4768 45.8858 77.0681 45.8858C76.2047 45.9309 75.3459 45.732 74.5902 45.3118C73.8345 44.8916 73.2125 44.2671 72.7952 43.5098H72.7307V50.2363H69.9431V32.1632H72.6414V34.4219H72.6927C73.1291 33.6682 73.7617 33.047 74.5231 32.6242C75.2846 32.2014 76.1464 31.993 77.0169 32.0211C80.4636 32.0211 82.7356 34.7457 82.7356 38.9542ZM79.8704 38.9542C79.8704 36.2047 78.4495 34.397 76.2815 34.397C74.1516 34.397 72.719 36.2427 72.719 38.9542C72.719 41.6905 74.1516 43.523 76.2815 43.523C78.4495 43.523 79.8704 41.7286 79.8704 38.9542Z" fill="white"/>
<path d="M97.6826 38.9541C97.6826 43.1743 95.4238 45.8858 92.0152 45.8858C91.1517 45.9309 90.2929 45.732 89.5372 45.3118C88.7816 44.8916 88.1595 44.2671 87.7422 43.5098H87.6777V50.2363H84.8901V32.1631H87.5884V34.4219H87.6396C88.0761 33.6682 88.7087 33.0469 89.4701 32.6242C90.2315 32.2014 91.0934 31.993 91.9638 32.0211C95.4107 32.0211 97.6826 34.7457 97.6826 38.9541ZM94.8174 38.9541C94.8174 36.2047 93.3965 34.397 91.2285 34.397C89.0987 34.397 87.666 36.2427 87.666 38.9541C87.666 41.6905 89.0987 43.523 91.2285 43.523C93.3965 43.523 94.8174 41.7285 94.8174 38.9541H94.8174Z" fill="white"/>
<path d="M107.563 40.5542C107.77 42.4014 109.564 43.6142 112.016 43.6142C114.366 43.6142 116.056 42.4013 116.056 40.7358C116.056 39.29 115.037 38.4243 112.623 37.831L110.209 37.2495C106.788 36.4233 105.2 34.8237 105.2 32.228C105.2 29.0142 108.001 26.8066 111.978 26.8066C115.914 26.8066 118.612 29.0142 118.703 32.228H115.889C115.721 30.3691 114.184 29.2471 111.938 29.2471C109.693 29.2471 108.156 30.3823 108.156 32.0347C108.156 33.3516 109.138 34.1265 111.539 34.7197L113.591 35.2236C117.413 36.1274 119 37.6626 119 40.3871C119 43.872 116.225 46.0546 111.81 46.0546C107.679 46.0546 104.89 43.9232 104.709 40.5541L107.563 40.5542Z" fill="white"/>
<path d="M125.015 28.9497V32.1636H127.598V34.3711H125.015V41.8579C125.015 43.021 125.532 43.5629 126.667 43.5629C126.974 43.5576 127.28 43.5361 127.584 43.4984V45.6928C127.074 45.7881 126.555 45.8313 126.036 45.8217C123.287 45.8217 122.214 44.789 122.214 42.1552V34.3711H120.24V32.1636H122.214V28.9497H125.015Z" fill="white"/>
<path d="M129.096 38.9546C129.096 34.6816 131.613 31.9966 135.537 31.9966C139.475 31.9966 141.979 34.6816 141.979 38.9546C141.979 43.2392 139.488 45.9125 135.537 45.9125C131.588 45.9125 129.096 43.2392 129.096 38.9546ZM139.139 38.9546C139.139 36.0234 137.796 34.2934 135.537 34.2934C133.278 34.2934 131.937 36.0366 131.937 38.9546C131.937 41.8974 133.278 43.6142 135.537 43.6142C137.796 43.6142 139.139 41.8974 139.139 38.9546H139.139Z" fill="white"/>
<path d="M144.275 32.163H146.934V34.4745H146.998C147.178 33.7526 147.601 33.1146 148.196 32.6678C148.791 32.2209 149.521 31.9925 150.265 32.0209C150.586 32.0198 150.906 32.0547 151.22 32.1249V34.7323C150.814 34.6084 150.391 34.5515 149.967 34.5639C149.562 34.5475 149.159 34.6189 148.784 34.7732C148.409 34.9275 148.072 35.1611 147.796 35.458C147.52 35.7548 147.312 36.1078 147.185 36.4928C147.058 36.8778 147.017 37.2857 147.062 37.6884V45.7435H144.275L144.275 32.163Z" fill="white"/>
<path d="M164.072 41.7553C163.697 44.2207 161.296 45.9125 158.225 45.9125C154.274 45.9125 151.822 43.2656 151.822 39.019C151.822 34.7593 154.287 31.9966 158.107 31.9966C161.865 31.9966 164.228 34.5776 164.228 38.6953V39.6504H154.636V39.8188C154.591 40.3186 154.654 40.8221 154.819 41.2959C154.985 41.7696 155.249 42.2028 155.594 42.5666C155.94 42.9304 156.359 43.2166 156.823 43.406C157.288 43.5955 157.788 43.6839 158.289 43.6655C158.948 43.7272 159.609 43.5746 160.174 43.2305C160.739 42.8863 161.178 42.3689 161.425 41.7553L164.072 41.7553ZM154.649 37.7021H161.438C161.463 37.2527 161.395 36.803 161.238 36.3812C161.081 35.9594 160.839 35.5746 160.526 35.2509C160.213 34.9273 159.837 34.6718 159.421 34.5005C159.005 34.3291 158.557 34.2457 158.107 34.2554C157.653 34.2527 157.203 34.3399 156.783 34.512C156.363 34.6841 155.982 34.9377 155.66 35.2581C155.338 35.5786 155.084 35.9596 154.91 36.379C154.736 36.7985 154.648 37.2482 154.649 37.7021V37.7021Z" fill="white"/>
<path d="M55.1057 16.8801H56.3025C56.5085 16.9057 56.7176 16.8884 56.9166 16.8293C57.1156 16.7701 57.3002 16.6703 57.4587 16.5363C57.6173 16.4023 57.7463 16.2368 57.8377 16.0504C57.9292 15.8641 57.981 15.6607 57.99 15.4533C57.99 14.6279 57.3689 14.0947 56.3157 14.0947C56.1046 14.0652 55.8897 14.0783 55.6838 14.1332C55.4779 14.1881 55.2851 14.2837 55.1167 14.4144C54.9483 14.5451 54.8079 14.7082 54.7036 14.894C54.5993 15.0799 54.5333 15.2848 54.5095 15.4965H53.1955C53.2181 15.1121 53.3196 14.7364 53.4937 14.3929C53.6678 14.0494 53.9108 13.7454 54.2075 13.4998C54.5041 13.2543 54.8482 13.0724 55.2182 12.9656C55.5882 12.8588 55.9762 12.8292 56.3581 12.8789C58.1203 12.8789 59.3611 13.8654 59.3611 15.2856C59.3652 15.7614 59.206 16.2241 58.9101 16.5967C58.6142 16.9693 58.1995 17.2291 57.7351 17.3327V17.4382C58.2856 17.4626 58.804 17.704 59.1771 18.1095C59.5501 18.5151 59.7474 19.0519 59.7258 19.6025C59.6851 19.9983 59.5657 20.382 59.3748 20.7311C59.1838 21.0803 58.9251 21.3877 58.6137 21.6356C58.3024 21.8834 57.9447 22.0666 57.5617 22.1744C57.1786 22.2822 56.7779 22.3124 56.383 22.2634C55.9873 22.3173 55.5848 22.291 55.1995 22.1861C54.8141 22.0812 54.4538 21.8997 54.1401 21.6526C53.8264 21.4054 53.5657 21.0976 53.3734 20.7476C53.1812 20.3975 53.0614 20.0123 53.0212 19.6149H54.3557C54.4363 20.4711 55.2229 21.0234 56.383 21.0234C57.5432 21.0234 58.3005 20.4031 58.3005 19.5286C58.3005 18.6416 57.5871 18.0952 56.3406 18.0952H55.1057V16.8801Z" fill="white"/>
<path d="M61.2419 20.1372C61.2419 18.9214 62.1487 18.2204 63.7541 18.1208L65.5837 18.0154V17.4324C65.5837 16.719 65.1135 16.3162 64.2009 16.3162C63.4568 16.3162 62.9426 16.5893 62.7932 17.0669H61.5027C61.6389 15.9067 62.7317 15.1626 64.2639 15.1626C65.9573 15.1626 66.9123 16.0056 66.9123 17.4324V22.0473H65.6277V21.0981H65.5222C65.3081 21.4386 65.0075 21.7162 64.6511 21.9025C64.2947 22.0888 63.8952 22.1772 63.4934 22.1586C63.2099 22.1881 62.9233 22.1579 62.6521 22.0698C62.381 21.9818 62.1313 21.8379 61.9192 21.6474C61.7071 21.457 61.5372 21.2242 61.4206 20.9641C61.3039 20.7039 61.2431 20.4223 61.2419 20.1372ZM65.5837 19.56V18.9953L63.9343 19.1008C63.0041 19.1631 62.5822 19.4795 62.5822 20.0749C62.5822 20.6828 63.1095 21.0366 63.8347 21.0366C64.0472 21.0581 64.2618 21.0366 64.4658 20.9735C64.6698 20.9104 64.8591 20.8069 65.0222 20.6691C65.1854 20.5313 65.3192 20.3622 65.4157 20.1716C65.5121 19.9811 65.5693 19.7731 65.5837 19.56Z" fill="white"/>
<path d="M70.4499 16.415V22.0473H69.1169V15.293H73.5642V16.415L70.4499 16.415Z" fill="white"/>
<path d="M81.6413 18.6672C81.6413 20.8131 80.5559 22.1586 78.8508 22.1586C78.4323 22.1872 78.0143 22.0956 77.646 21.8946C77.2778 21.6936 76.9746 21.3916 76.7722 21.0241H76.6667V24.2929H75.3337V15.2929H76.6169V16.4092H76.7166C76.9226 16.0288 77.2297 15.7128 77.604 15.4961C77.9783 15.2793 78.4052 15.1702 78.8376 15.1809C80.5559 15.1808 81.6413 16.5204 81.6413 18.6672ZM80.2703 18.6672C80.2703 17.2404 79.595 16.3783 78.4656 16.3783C77.3436 16.3783 76.6419 17.2587 76.6419 18.673C76.6419 20.0807 77.3435 20.9618 78.4597 20.9618C79.595 20.9618 80.2703 20.0998 80.2703 18.6672Z" fill="white"/>
<path d="M83.4166 24.4665V23.3188C83.5608 23.3372 83.7062 23.3455 83.8516 23.3437C84.1356 23.3648 84.4173 23.2802 84.6428 23.1062C84.8682 22.9323 85.0215 22.6812 85.0732 22.4011L85.1728 22.0722L82.728 15.293H84.1797L85.8731 20.6579H85.9786L87.6661 15.293H89.0796L86.5616 22.3264C85.9844 23.9699 85.3458 24.4973 83.9688 24.4973C83.8575 24.4973 83.5411 24.4848 83.4166 24.4665Z" fill="white"/>
<path d="M90.1196 20.1308H91.4468C91.5771 20.7263 92.1353 21.0368 92.916 21.0368C93.8037 21.0368 94.3486 20.6456 94.3486 20.0378C94.3486 19.3866 93.8594 19.0761 92.916 19.0761H91.9053V18.0404H92.8984C93.7041 18.0404 94.1143 17.7306 94.1143 17.166C94.1143 16.6701 93.7173 16.2915 92.8984 16.2915C92.1528 16.2915 91.6079 16.6079 91.5214 17.1411H90.2368C90.3329 16.5284 90.6655 15.9779 91.1633 15.6079C91.661 15.238 92.2841 15.0781 92.8984 15.1628C94.5039 15.1628 95.4224 15.8886 95.4224 17.0297C95.4298 17.3475 95.328 17.6582 95.1339 17.9099C94.9398 18.1616 94.6652 18.339 94.3559 18.4126V18.518C94.7241 18.5655 95.062 18.7465 95.3056 19.0266C95.5492 19.3068 95.6814 19.6666 95.6772 20.0378C95.6772 21.3218 94.5845 22.1713 92.916 22.1713C91.4409 22.1713 90.2427 21.4953 90.1196 20.1308Z" fill="white"/>
<path d="M97.5991 22.0473V15.293H98.9204V19.9387H99.0259L102.139 15.293H103.46V22.0474H102.139V17.3767H102.039L98.9204 22.0474L97.5991 22.0473Z" fill="white"/>
<path d="M110.734 16.415H108.607V22.0473H107.273V16.415H105.146V15.293H110.734V16.415Z" fill="white"/>
<path d="M117.917 20.2223C117.736 20.8396 117.343 21.3734 116.808 21.7306C116.273 22.0877 115.629 22.2455 114.989 22.1764C114.544 22.1881 114.102 22.1029 113.693 21.9266C113.285 21.7503 112.919 21.4872 112.622 21.1555C112.325 20.8237 112.104 20.4314 111.974 20.0057C111.844 19.5799 111.808 19.131 111.869 18.69C111.81 18.2477 111.846 17.7978 111.976 17.3708C112.106 16.9438 112.326 16.5497 112.621 16.215C112.916 15.8804 113.28 15.6132 113.688 15.4314C114.095 15.2496 114.537 15.1574 114.983 15.1612C116.863 15.1612 117.998 16.4452 117.998 18.5662V19.0314H113.229V19.1061C113.207 19.354 113.238 19.6036 113.319 19.8388C113.401 20.0741 113.53 20.2897 113.699 20.472C113.869 20.6542 114.074 20.799 114.303 20.897C114.532 20.995 114.779 21.0441 115.027 21.0411C115.346 21.0792 115.669 21.0217 115.955 20.8759C116.241 20.7301 116.477 20.5025 116.633 20.2222L117.917 20.2223ZM113.228 18.0455H116.639C116.655 17.819 116.625 17.5914 116.548 17.3774C116.472 17.1634 116.352 16.9677 116.195 16.8029C116.039 16.6382 115.85 16.5079 115.64 16.4206C115.43 16.3332 115.205 16.2907 114.978 16.2958C114.747 16.2926 114.518 16.3358 114.304 16.4226C114.091 16.5094 113.897 16.6382 113.734 16.8013C113.57 16.9644 113.442 17.1586 113.355 17.3723C113.268 17.586 113.225 17.8149 113.229 18.0455H113.228Z" fill="white"/>
<path d="M123.568 15.293H126.613C127.935 15.293 128.709 15.9624 128.709 17.0105C128.712 17.343 128.599 17.6662 128.392 17.9259C128.184 18.1856 127.893 18.3661 127.568 18.4372V18.5427C127.963 18.5676 128.333 18.7431 128.601 19.0329C128.87 19.3226 129.017 19.7046 129.013 20.0998C129.013 21.2783 128.126 22.0473 126.644 22.0473H123.568V15.293ZM124.889 16.3162V18.0652H126.21C127.016 18.0652 127.401 17.7553 127.401 17.1841C127.401 16.6575 127.066 16.3161 126.358 16.3161L124.889 16.3162ZM124.889 19.0452V21.0242H126.47C127.258 21.0242 127.68 20.6763 127.68 20.0376C127.68 19.3616 127.202 19.0452 126.303 19.0452L124.889 19.0452Z" fill="white"/>
</svg>
