<svg width="100" height="100" viewBox="0 0 100 100" fill="none" xmlns="http://www.w3.org/2000/svg">
<mask id="mask0_4535_11710" style="mask-type:alpha" maskUnits="userSpaceOnUse" x="0" y="0" width="100" height="100">
<rect width="100" height="100" fill="#D9D9D9"/>
</mask>
<g mask="url(#mask0_4535_11710)">
<path d="M50.788 90.0008C73.3149 90.0008 91.5765 79.709 91.5765 67.0133C91.5765 54.3177 73.3149 44.0259 50.788 44.0259C28.2611 44.0259 9.99951 54.3177 9.99951 67.0133C9.99951 79.709 28.2611 90.0008 50.788 90.0008Z" fill="#DEEBF5"/>
<g clip-path="url(#clip0_4535_11710)">
<path d="M66.7779 59.6627L66.7755 59.6613L27.1896 36.7695C26.2045 36.139 25.75 35.4428 25.75 34.7105C25.75 33.7942 26.3858 32.7978 27.8677 31.9642L27.8677 31.9642L27.8747 31.9602L41.5747 24.0602L41.5747 24.0603L41.5793 24.0575C42.9065 23.2795 44.6078 22.8306 46.2817 22.7599C47.9632 22.6888 49.5289 23.0025 50.6141 23.6536L50.6141 23.6537L50.6245 23.6598L90.2221 46.5584C90.2226 46.5587 90.2232 46.559 90.2237 46.5593C91.2623 47.1656 91.65 47.85 91.65 48.6105C91.65 49.5269 91.0142 50.5233 89.5323 51.3568L89.5253 51.3608L75.8323 59.2568C75.8311 59.2575 75.83 59.2582 75.8288 59.2588C74.3488 60.0904 72.4783 60.5605 70.7 60.5605C69.1841 60.5605 67.8274 60.2749 66.7779 59.6627Z" fill="white" stroke="#0062AD" stroke-width="1.5"/>
<path d="M66.7779 55.6627L66.7755 55.6613L27.1896 32.7695C26.2045 32.139 25.75 31.4428 25.75 30.7105C25.75 29.7942 26.3858 28.7978 27.8677 27.9642L27.8677 27.9642L27.8747 27.9602L41.5747 20.0602L41.5747 20.0603L41.5793 20.0575C42.9065 19.2795 44.6078 18.8306 46.2817 18.7599C47.9632 18.6888 49.5289 19.0025 50.6141 19.6536L50.6141 19.6537L50.6245 19.6598L90.2221 42.5584C90.2226 42.5587 90.2232 42.559 90.2237 42.5593C91.2623 43.1656 91.65 43.85 91.65 44.6105C91.65 45.5269 91.0142 46.5233 89.5323 47.3568L89.5253 47.3608L75.8323 55.2568C75.8311 55.2575 75.83 55.2582 75.8288 55.2588C74.3488 56.0904 72.4783 56.5605 70.7 56.5605C69.1841 56.5605 67.8274 56.2749 66.7779 55.6627Z" fill="white" stroke="#0062AD" stroke-width="1.5"/>
<path d="M66.7779 51.6627L66.7755 51.6613L27.1896 28.7695C26.2045 28.139 25.75 27.4428 25.75 26.7105C25.75 25.7942 26.3858 24.7978 27.8677 23.9642L27.8677 23.9642L27.8747 23.9602L41.5747 16.0602L41.5747 16.0603L41.5793 16.0575C42.9065 15.2795 44.6078 14.8306 46.2817 14.7599C47.9632 14.6888 49.5289 15.0025 50.6141 15.6536L50.6141 15.6537L50.6245 15.6598L90.2221 38.5584C90.2226 38.5587 90.2232 38.559 90.2237 38.5593C91.2623 39.1656 91.65 39.85 91.65 40.6105C91.65 41.5269 91.0142 42.5233 89.5323 43.3568L89.5253 43.3608L75.8323 51.2568C75.8311 51.2575 75.83 51.2582 75.8288 51.2588C74.3488 52.0904 72.4783 52.5605 70.7 52.5605C69.1841 52.5605 67.8274 52.2749 66.7779 51.6627Z" fill="white" stroke="#0062AD" stroke-width="1.5"/>
<path d="M90.8191 47.1807C92.3055 45.8277 92.3055 44.2815 90.9182 43.1218C92.5037 41.6723 92.3055 39.8361 90.4227 38.7731L89.0354 38L71 48.6303V61C72.7837 61 74.7656 60.6134 76.2521 59.7437L89.8282 52.1092C92.3055 50.6597 92.7019 48.5336 90.8191 47.1807Z" fill="#0062AD"/>
<path d="M66.5999 47.9L27.0999 25.1C24.6999 23.7 24.9999 21.3 27.7999 19.7L41.4999 11.8C44.2999 10.2 48.4999 9.99997 50.8999 11.4L90.4999 34.3C92.8999 35.7 92.5999 38.1 89.7999 39.7L75.9999 47.5C73.1999 49.1 68.9999 49.3 66.5999 47.9Z" fill="white"/>
<path d="M90.1 35.9L50.5 13.1C48.1 11.7 43.9 11.9 41.1 13.5L27.5 21.4C26.5 22 25.8 22.7 25.5 23.4C25.6 24 26.1 24.6 27 25.1L66.6 48C69 49.4 73.2 49.2 76 47.6L89.7 39.7C90.7 39.1 91.4 38.4 91.7 37.7C91.4 37 90.9 36.4 90.1 35.9Z" fill="#DEEBF5"/>
<path d="M66.7779 47.6522L66.7755 47.6508L27.1896 24.759C26.2045 24.1285 25.75 23.4323 25.75 22.7C25.75 21.7837 26.3858 20.7873 27.8677 19.9537L27.8677 19.9537L27.8747 19.9497L41.5747 12.0497L41.5747 12.0498L41.5793 12.0471C42.9065 11.269 44.6078 10.8201 46.2817 10.7494C47.9632 10.6783 49.5289 10.992 50.6141 11.6431L50.6141 11.6432L50.6245 11.6493L90.2221 34.5479C90.2226 34.5482 90.2232 34.5485 90.2237 34.5488C91.2623 35.1551 91.65 35.8395 91.65 36.6C91.65 37.5164 91.0142 38.5128 89.5323 39.3463L89.5253 39.3503L75.8323 47.2463C75.8311 47.247 75.83 47.2477 75.8288 47.2483C74.3488 48.0799 72.4783 48.55 70.7 48.55C69.1841 48.55 67.8274 48.2644 66.7779 47.6522Z" fill="white" stroke="#0062AD" stroke-width="1.5"/>
<path d="M82.1 38.0999C80.1 36.8999 80.1 34.9999 82.1 33.7999C82.3 33.6999 82.5 33.5999 82.8 33.4999L51.7001 15.5999C51.5 15.6999 51.4001 15.8999 51.2001 15.9999C49.2001 17.1999 45.8 17.1999 43.8 15.9999C43.4 15.7999 43.2 15.5999 42.9 15.2999L33.8 20.4999C34.2 20.5999 34.6 20.7999 35 20.9999C37 22.1999 37 24.0999 35 25.2999C34.8 25.3999 34.6 25.4999 34.4 25.5999L65.5 43.4999C65.6 43.3999 65.8 43.2999 66 43.1999C68 41.9999 71.4001 41.9999 73.4001 43.1999C73.8001 43.3999 74 43.5999 74.3 43.8999L83.4001 38.6999C82.8001 38.4999 82.4 38.2999 82.1 38.0999Z" fill="white"/>
<path d="M35.1426 25.5862C35.1739 25.5641 35.2059 25.5401 35.2376 25.5141C36.2405 24.9359 36.85 24.1381 36.85 23.1C36.85 22.1245 36.0957 21.2282 35.2066 20.6696C35.0029 20.535 34.7926 20.4332 34.5735 20.3406L42.7315 15.6217C43.003 15.9399 43.3461 16.1578 43.6866 16.2846C44.772 16.8935 46.1587 17.175 47.5 17.175C48.8595 17.175 50.2654 16.8859 51.3571 16.2598C51.4885 16.1925 51.5889 16.1255 51.6597 16.0783L51.6661 16.074C51.7095 16.0451 51.7413 16.0241 51.7708 16.0064L82.1238 33.4996L82.0646 33.5292C81.4983 33.8123 81.0415 34.1531 80.7251 34.575C80.3991 35.0096 80.25 35.4938 80.25 36C80.25 36.9754 81.0043 37.8717 81.8935 38.4303C82.0929 38.5621 82.2986 38.6625 82.5127 38.7535L74.2513 43.4512C74.0016 43.2012 73.7066 43.0245 73.4135 42.9154C72.3281 42.3064 70.9414 42.025 69.6 42.025C68.2328 42.025 66.8185 42.3174 65.7243 42.9509L65.6392 43.0001L65.5787 43.0607C65.5764 43.0624 65.573 43.065 65.5683 43.0684C65.5485 43.0828 65.5242 43.0992 65.484 43.1259L65.4796 43.1289C65.4642 43.1391 65.4462 43.1512 65.4267 43.1644L35.1426 25.5862Z" fill="#DEEBF5" stroke="#0062AD" stroke-width="1.5"/>
<path d="M63.7967 31.6846C60.8591 33.4385 56.1409 33.4385 53.2033 31.6846C50.2656 29.9308 50.2656 27.0692 53.2033 25.3154C56.1409 23.5615 60.8591 23.5615 63.7967 25.3154C66.7344 27.0692 66.7344 29.9308 63.7967 31.6846Z" fill="white"/>
<path d="M58.5 32.25C56.7423 32.25 54.9455 31.8445 53.6577 31.0812C52.3489 30.3056 51.75 29.3218 51.75 28.5C51.75 27.6019 52.3383 26.7008 53.6577 25.9188C54.9478 25.1541 56.6826 24.75 58.4684 24.75C60.2514 24.75 62.0099 25.153 63.3464 25.9212C64.6523 26.6965 65.25 27.679 65.25 28.5C65.25 29.3981 64.6617 30.2992 63.3423 31.0812C62.0545 31.8445 60.2577 32.25 58.5 32.25Z" fill="white" stroke="#0062AD" stroke-width="1.5"/>
</g>
<path d="M6 61.88L6.06 44L19.57 44.22C25.11 44.43 30.79 48.01 33.2 53.01L43.5 60.26C46.59 61.96 48 65.76 43.81 67.33L43.91 67.33L63.66 67.22C65.81 67.21 67.56 68.95 67.56 71.11C67.56 73.26 65.82 75 63.68 75L39.38 75.04C37.28 75.04 35.22 74.51 33.38 73.5L12.18 61.86L6 61.88Z" fill="white"/>
<path d="M6.05005 61.88L12.25 61.88L33.85 73.72C35.27 74.5 36.85 74.91 38.47 74.91L63.9201 75.03C66.0601 75.04 67.81 73.32 67.83 71.17C67.85 69 66.09 67.23 63.91 67.24L43.4601 67.32" stroke="#0062AD" stroke-width="1.5" stroke-miterlimit="10"/>
<path d="M6.06006 44L18.6001 44.18C24.7201 44.27 30.3201 47.63 33.2801 52.99L45.4995 61.26C46.9295 62.58 47.0295 64.81 45.7195 66.26C44.3995 67.72 42.1495 67.83 40.6895 66.51L27.0501 57.14" stroke="#0062AD" stroke-width="1.5" stroke-miterlimit="10"/>
</g>
<defs>
<clipPath id="clip0_4535_11710">
<rect width="67.4" height="52.1" fill="white" transform="translate(25 10)"/>
</clipPath>
</defs>
</svg>
