<svg width="100" height="100" viewBox="0 0 100 100" fill="none" xmlns="http://www.w3.org/2000/svg">
<mask id="mask0_4535_11633" style="mask-type:alpha" maskUnits="userSpaceOnUse" x="0" y="0" width="100" height="100">
<rect width="100" height="100" fill="#D9D9D9"/>
</mask>
<g mask="url(#mask0_4535_11633)">
<path opacity="0.1294" d="M49.5536 90.1786C70.0177 90.1786 86.6071 80.6357 86.6071 68.8639C86.6071 57.0921 70.0177 47.5492 49.5536 47.5492C29.0894 47.5492 12.5 57.0921 12.5 68.8639C12.5 80.6357 29.0894 90.1786 49.5536 90.1786Z" fill="#0061AF"/>
<path d="M21.6358 69.2453L20.1755 68.2413C19.7191 67.8762 19.4453 67.4199 19.4453 66.781L19.8104 38.3044C19.8104 36.2051 20.9969 34.1972 22.8223 33.1932L65.7198 8.45867C66.6325 7.91105 67.7278 7.91105 68.6405 8.3674L69.7357 8.91503" stroke="#0C63AD" stroke-width="1.5" stroke-miterlimit="10" stroke-linejoin="round"/>
<path d="M23.187 71.4358V73.3524C23.187 74.3564 23.7346 75.1779 24.5561 75.7255L46.9175 88.9598C49.4731 90.5114 52.6676 90.5114 55.2232 88.9598L96.9342 64.6817C97.8469 64.1341 98.3945 63.2213 98.3032 62.1261L98.2119 60.0269" fill="#0C63AD"/>
<path d="M23.187 71.4358V73.3524C23.187 74.3564 23.7346 75.1779 24.5561 75.7255L46.9175 88.9598C49.4731 90.5114 52.6676 90.5114 55.2232 88.9598L96.9341 64.6817C97.8469 64.1341 98.3945 63.2213 98.3032 62.1261L98.2119 60.0269" stroke="#0C63AD" stroke-width="1.5" stroke-miterlimit="10"/>
<path d="M20.8146 67.6936L20.9972 38.8519C20.9972 36.9352 22.0924 35.1098 23.7353 34.1058L67.728 8.73245C68.9146 8.00228 70.4662 8.91499 70.4662 10.3753L70.1011 39.3996C70.1011 41.3163 69.0058 43.1417 67.3629 44.0544L23.5528 69.2453C22.275 69.9754 20.7234 69.154 20.8146 67.6936Z" fill="#FDFDFD" stroke="#0C63AD" stroke-width="1.5" stroke-miterlimit="10"/>
<path d="M48.0135 87.2257L23.6441 72.2572C23.0965 71.8921 23.0965 71.0707 23.6441 70.7056L68.0932 45.1497C70.1012 44.0544 72.4742 44.0544 74.4822 45.1497L96.7523 57.9277C98.5778 59.0229 98.5778 61.5785 96.7523 62.6738L54.5851 87.317C52.5771 88.5035 50.0215 88.4122 48.0135 87.2257Z" fill="#FDFDFD" stroke="#0C63AD" stroke-width="1.5" stroke-miterlimit="10"/>
<path d="M63.2556 50.626L65.7199 49.1656L68.3668 50.626L65.7199 52.1776L63.2556 50.626Z" fill="#0C63AD" stroke="#0C63AD" stroke-miterlimit="10" stroke-linejoin="round"/>
<path d="M67.3628 48.2529L69.8271 46.7013L72.474 48.1616L69.9184 49.8045L67.3628 48.2529Z" fill="#0C63AD" stroke="#0C63AD" stroke-miterlimit="10" stroke-linejoin="round"/>
<path d="M59.0576 53.0903L61.5219 51.5387L64.1688 52.999L61.5219 54.6419L59.0576 53.0903Z" fill="#0C63AD" stroke="#0C63AD" stroke-miterlimit="10" stroke-linejoin="round"/>
<path d="M54.8586 55.6458L57.323 54.0942L59.9698 55.5546L57.323 57.1975L54.8586 55.6458Z" fill="#0C63AD" stroke="#0C63AD" stroke-miterlimit="10" stroke-linejoin="round"/>
<path d="M50.4778 58.1102L52.9421 56.6499L55.589 58.1102L53.0334 59.6619L50.4778 58.1102Z" fill="#0C63AD" stroke="#0C63AD" stroke-miterlimit="10" stroke-linejoin="round"/>
<path d="M46.1877 60.5745L48.6521 59.1141L51.2989 60.5745L48.7433 62.1261L46.1877 60.5745Z" fill="#0C63AD" stroke="#0C63AD" stroke-miterlimit="10" stroke-linejoin="round"/>
<path d="M42.0806 62.9476L44.5449 61.396L47.1918 62.8563L44.6362 64.4992L42.0806 62.9476Z" fill="#0C63AD" stroke="#0C63AD" stroke-miterlimit="10" stroke-linejoin="round"/>
<path d="M65.7202 54.0942L68.1845 52.5426L70.8314 54.0029L68.1845 55.5546L65.7202 54.0942Z" fill="#0C63AD" stroke="#0C63AD" stroke-miterlimit="10" stroke-linejoin="round"/>
<path d="M71.0137 55.8284L73.478 54.368L76.1249 55.8284L73.478 57.38L71.0137 55.8284Z" fill="#0C63AD" stroke="#0C63AD" stroke-miterlimit="10" stroke-linejoin="round"/>
<path d="M73.5691 59.2968L76.0334 57.8364L78.6803 59.2968L76.1247 60.8484L73.5691 59.2968Z" fill="#0C63AD" stroke="#0C63AD" stroke-miterlimit="10" stroke-linejoin="round"/>
<path d="M74.7556 63.4039L79.2279 60.8483L81.966 62.3999L77.3112 64.9555L74.7556 63.4039Z" fill="#0C63AD" stroke="#0C63AD" stroke-miterlimit="10" stroke-linejoin="round"/>
<path d="M80.5972 60.1182L86.7123 56.6499L89.4505 58.019L83.0615 61.6698L80.5972 60.1182Z" fill="#0C63AD" stroke="#0C63AD" stroke-miterlimit="10" stroke-linejoin="round"/>
<path d="M69.6448 61.5785L72.1091 60.1182L74.756 61.5785L72.2004 63.1301L69.6448 61.5785Z" fill="#0C63AD" stroke="#0C63AD" stroke-miterlimit="10" stroke-linejoin="round"/>
<path d="M65.7202 63.9515L68.1845 62.3999L70.8314 63.9515L68.1845 65.5031L65.7202 63.9515Z" fill="#0C63AD" stroke="#0C63AD" stroke-miterlimit="10" stroke-linejoin="round"/>
<path d="M61.5212 66.2334L63.9856 64.6818L66.6324 66.1421L64.0768 67.785L61.5212 66.2334Z" fill="#0C63AD" stroke="#0C63AD" stroke-miterlimit="10" stroke-linejoin="round"/>
<path d="M57.5967 68.6064L60.061 67.0548L62.7079 68.5151L60.061 70.158L57.5967 68.6064Z" fill="#0C63AD" stroke="#0C63AD" stroke-miterlimit="10" stroke-linejoin="round"/>
<path d="M53.5813 70.8882L56.0456 69.4279L58.6925 70.8882L56.1369 72.4398L53.5813 70.8882Z" fill="#0C63AD" stroke="#0C63AD" stroke-miterlimit="10" stroke-linejoin="round"/>
<path d="M49.656 73.1699L52.1203 71.6183L54.8585 73.0786L52.2116 74.7215L49.656 73.1699Z" fill="#0C63AD" stroke="#0C63AD" stroke-miterlimit="10" stroke-linejoin="round"/>
<path d="M52.5769 76.4557L57.0492 73.8088L59.9699 75.1779L55.1325 78.0073L52.5769 76.4557Z" fill="#0C63AD" stroke="#0C63AD" stroke-miterlimit="10" stroke-linejoin="round"/>
<path d="M58.6013 72.7136L73.296 64.2253L75.9428 65.8682L61.1569 74.3564L58.6013 72.7136Z" fill="#0C63AD" stroke="#0C63AD" stroke-miterlimit="10" stroke-linejoin="round"/>
<path d="M63.9856 74.6303L75.7596 67.7849L80.0493 70.158L68.2753 77.1858L63.9856 74.6303Z" fill="#0C63AD" stroke="#0C63AD" stroke-miterlimit="10" stroke-linejoin="round"/>
<path d="M67.0894 58.1102L69.5537 56.6499L72.2005 58.1102L69.645 59.6619L67.0894 58.1102Z" fill="#0C63AD" stroke="#0C63AD" stroke-miterlimit="10" stroke-linejoin="round"/>
<path d="M63.2556 60.392L65.7199 58.9316L68.3668 60.392L65.7199 61.9436L63.2556 60.392Z" fill="#0C63AD" stroke="#0C63AD" stroke-miterlimit="10" stroke-linejoin="round"/>
<path d="M59.2395 62.6737L61.7038 61.2134L64.3507 62.6737L61.7038 64.2253L59.2395 62.6737Z" fill="#0C63AD" stroke="#0C63AD" stroke-miterlimit="10" stroke-linejoin="round"/>
<path d="M55.2239 65.1381L57.6882 63.6777L60.3351 65.1381L57.7795 66.6897L55.2239 65.1381Z" fill="#0C63AD" stroke="#0C63AD" stroke-miterlimit="10" stroke-linejoin="round"/>
<path d="M51.1167 67.5111L53.581 65.9595L56.2279 67.4198L53.6723 68.9714L51.1167 67.5111Z" fill="#0C63AD" stroke="#0C63AD" stroke-miterlimit="10" stroke-linejoin="round"/>
<path d="M47.1006 69.7017L49.5649 68.2413L52.2118 69.7017L49.6562 71.2533L47.1006 69.7017Z" fill="#0C63AD" stroke="#0C63AD" stroke-miterlimit="10" stroke-linejoin="round"/>
<path d="M43.2668 71.9834L45.7312 70.5231L48.378 71.9834L45.8224 73.535L43.2668 71.9834Z" fill="#0C63AD" stroke="#0C63AD" stroke-miterlimit="10" stroke-linejoin="round"/>
<path d="M36.1479 76.1819L41.5329 72.9874L44.1798 74.4478L38.8861 77.7335L36.1479 76.1819Z" fill="#0C63AD" stroke="#0C63AD" stroke-miterlimit="10" stroke-linejoin="round"/>
<path d="M40.5288 78.6463L48.013 73.9915L51.025 75.7256L43.2669 80.2892L40.5288 78.6463Z" fill="#0C63AD" stroke="#0C63AD" stroke-miterlimit="10" stroke-linejoin="round"/>
<path d="M44.1797 81.1105L51.025 77.0946L54.037 78.8288L47.1916 83.0272L44.1797 81.1105Z" fill="#0C63AD" stroke="#0C63AD" stroke-miterlimit="10" stroke-linejoin="round"/>
<path d="M69.6448 51.7212L74.2996 48.983L76.8552 50.5346L72.2004 53.1815L69.6448 51.7212Z" fill="#0C63AD" stroke="#0C63AD" stroke-miterlimit="10" stroke-linejoin="round"/>
<path d="M61.5212 56.4673L63.9856 55.007L66.6324 56.4673L64.0768 58.0189L61.5212 56.4673Z" fill="#0C63AD" stroke="#0C63AD" stroke-miterlimit="10" stroke-linejoin="round"/>
<path d="M57.5967 58.9316L60.061 57.38L62.7079 58.8403L60.061 60.392L57.5967 58.9316Z" fill="#0C63AD" stroke="#0C63AD" stroke-miterlimit="10" stroke-linejoin="round"/>
<path d="M53.6721 61.1222L56.1364 59.6619L58.8746 61.1222L56.2277 62.6738L53.6721 61.1222Z" fill="#0C63AD" stroke="#0C63AD" stroke-miterlimit="10" stroke-linejoin="round"/>
<path d="M49.2913 63.5864L51.7556 62.1261L54.4024 63.5864L51.7556 65.1381L49.2913 63.5864Z" fill="#0C63AD" stroke="#0C63AD" stroke-miterlimit="10" stroke-linejoin="round"/>
<path d="M45.3669 65.9595L47.8313 64.4991L50.4781 65.9595L47.9225 67.5111L45.3669 65.9595Z" fill="#0C63AD" stroke="#0C63AD" stroke-miterlimit="10" stroke-linejoin="round"/>
<path d="M41.3506 68.0588L43.8149 66.5072L46.4618 67.9675L43.8149 69.5191L41.3506 68.0588Z" fill="#0C63AD" stroke="#0C63AD" stroke-miterlimit="10" stroke-linejoin="round"/>
<path d="M31.8582 73.9001L39.7075 69.2452L42.3543 70.7056L34.505 75.3604L31.8582 73.9001Z" fill="#0C63AD" stroke="#0C63AD" stroke-miterlimit="10" stroke-linejoin="round"/>
<path d="M37.8826 65.4119L40.3469 63.9515L42.9938 65.4119L40.3469 66.9635L37.8826 65.4119Z" fill="#0C63AD" stroke="#0C63AD" stroke-miterlimit="10" stroke-linejoin="round"/>
<path d="M33.5925 68.0588L36.0568 66.5072L38.7037 67.9675L36.1481 69.5191L33.5925 68.0588Z" fill="#0C63AD" stroke="#0C63AD" stroke-miterlimit="10" stroke-linejoin="round"/>
<path d="M27.6599 71.2533L30.1242 69.7017L32.7711 71.162L30.2155 72.8049L27.6599 71.2533Z" fill="#0C63AD" stroke="#0C63AD" stroke-miterlimit="10" stroke-linejoin="round"/>
<path d="M80.1413 58.8404L76.9468 57.015L78.5897 55.9197L74.5737 53.6379L78.6809 51.5387L85.8914 55.4634L80.1413 58.8404Z" fill="#0C63AD" stroke="#0C63AD" stroke-miterlimit="10" stroke-linejoin="round"/>
<path d="M47.6307 49.0948C57.3679 49.0948 65.2614 41.2386 65.2614 31.5474C65.2614 21.8562 57.3679 14 47.6307 14C37.8935 14 30 21.8562 30 31.5474C30 41.2386 37.8935 49.0948 47.6307 49.0948Z" fill="white" stroke="#0061AF" stroke-width="1.5" stroke-miterlimit="10" stroke-linejoin="round"/>
<path d="M54.5865 26.6234C54.6107 26.6089 54.6309 26.5881 54.6449 26.5631C54.6589 26.5381 54.6662 26.5097 54.6662 26.4809C54.6662 26.4521 54.6589 26.4237 54.6449 26.3987C54.6309 26.3737 54.6107 26.3529 54.5865 26.3384L48.4475 22.6782C48.0547 22.4446 47.6087 22.3215 47.1547 22.3215C46.7007 22.3215 46.2547 22.4446 45.8619 22.6782L39.7242 26.3384C39.6999 26.3529 39.6798 26.3737 39.6658 26.3987C39.6518 26.4237 39.6444 26.4521 39.6444 26.4809C39.6444 26.5097 39.6518 26.5381 39.6658 26.5631C39.6798 26.5881 39.6999 26.6089 39.7242 26.6234L47.0745 31.0606C47.0993 31.0756 47.1274 31.0835 47.1561 31.0835C47.1848 31.0835 47.213 31.0756 47.2377 31.0606L54.5865 26.6234Z" fill="#0061AF"/>
<path d="M39.0361 27.7457C39.0116 27.7312 38.9837 27.7236 38.9554 27.7236C38.9271 27.7237 38.8993 27.7314 38.8749 27.746C38.8504 27.7606 38.8301 27.7816 38.8161 27.8068C38.802 27.832 38.7947 27.8606 38.7949 27.8897V35.0619C38.7955 35.4075 38.8843 35.747 39.0524 36.0465C39.2205 36.346 39.4621 36.5951 39.7531 36.7691L46.2707 40.7794C46.2951 40.7939 46.3228 40.8015 46.351 40.8015C46.3792 40.8015 46.407 40.7939 46.4314 40.7795C46.4558 40.765 46.4761 40.7442 46.4902 40.7191C46.5044 40.6941 46.5118 40.6657 46.5118 40.6367V32.3153C46.5118 32.2864 46.5044 32.258 46.4903 32.233C46.4762 32.2079 46.4559 32.1871 46.4315 32.1726L39.0361 27.7457Z" fill="#0061AF"/>
<path d="M47.798 32.3442V40.6347C47.798 40.6636 47.8055 40.692 47.8196 40.7171C47.8337 40.7421 47.854 40.7629 47.8785 40.7774C47.9029 40.7919 47.9306 40.7995 47.9588 40.7995C47.987 40.7995 48.0147 40.7918 48.0392 40.7774L54.5563 36.767C54.8471 36.5933 55.0886 36.3445 55.2568 36.0454C55.4249 35.7463 55.5139 35.4072 55.5149 35.0619V27.8897C55.5148 27.8607 55.5073 27.8324 55.4932 27.8074C55.479 27.7824 55.4587 27.7616 55.4343 27.7472C55.4099 27.7328 55.3822 27.7252 55.354 27.7253C55.3258 27.7253 55.2982 27.7329 55.2738 27.7474L47.8784 32.2019C47.854 32.2164 47.8338 32.2371 47.8197 32.2621C47.8056 32.287 47.7981 32.3154 47.798 32.3442Z" fill="#0061AF"/>
</g>
</svg>
