<svg width="100" height="100" viewBox="0 0 100 100" fill="none" xmlns="http://www.w3.org/2000/svg">
<mask id="mask0_4535_11691" style="mask-type:alpha" maskUnits="userSpaceOnUse" x="0" y="0" width="100" height="100">
<rect width="100" height="100" fill="#D9D9D9"/>
</mask>
<g mask="url(#mask0_4535_11691)">
<path d="M50.9216 95.0008C73.4484 95.0008 91.7101 84.709 91.7101 72.0133C91.7101 59.3177 73.4484 49.0259 50.9216 49.0259C28.3947 49.0259 10.1331 59.3177 10.1331 72.0133C10.1331 84.709 28.3947 95.0008 50.9216 95.0008Z" fill="#DEEBF5"/>
<path d="M3 67.88L3.06 50L16.57 50.22C22.11 50.43 27.79 54.01 30.2 59.01L40.5 66.26C43.59 67.96 45 71.76 40.81 73.33L40.91 73.33L60.66 73.22C62.81 73.21 64.56 74.95 64.56 77.11C64.56 79.26 62.82 81 60.68 81L36.38 81.04C34.28 81.04 32.22 80.51 30.38 79.5L9.18 67.86L3 67.88Z" fill="white"/>
<path d="M3.05005 67.88L9.25005 67.88L30.85 79.72C32.27 80.5 33.85 80.91 35.47 80.91L60.9201 81.03C63.0601 81.04 64.81 79.32 64.83 77.17C64.85 75 63.09 73.23 60.91 73.24L40.4601 73.32" stroke="#0062AD" stroke-width="1.5" stroke-miterlimit="10"/>
<path d="M3.06006 50L15.6001 50.18C21.7201 50.27 27.3201 53.63 30.2801 58.99L42.4995 67.26C43.9295 68.58 44.0295 70.81 42.7195 72.26C41.3995 73.72 39.1495 73.83 37.6895 72.51L24.0501 63.14" stroke="#0062AD" stroke-width="1.5" stroke-miterlimit="10"/>
<path d="M66.478 69.8299V36.154C66.478 34.7765 67.3082 33.5448 68.5943 33.01L96.9031 21.358C96.952 21.3418 97.0008 21.3742 97.0008 21.4228V57.7727V57.7889L68.0571 70.8509C67.3245 71.1912 66.478 70.6402 66.478 69.8299Z" fill="white" stroke="#0062AD" stroke-width="1.5" stroke-miterlimit="10"/>
<path d="M63.5399 32.2265L35.0364 20.6241C34.9872 20.6081 34.9872 20.5437 35.0364 20.5115L65.7187 8.12069C66.1282 7.95977 66.5705 7.95977 66.9636 8.12069L96.7777 20.3184C97.0726 20.431 97.0726 20.8494 96.7777 20.9621L69.1588 32.2265C67.3568 32.9989 65.3255 32.9828 63.5399 32.2265Z" fill="white" stroke="#0062AD" stroke-width="1.5" stroke-miterlimit="10"/>
<path d="M35.5979 20.4315C35.3068 20.3159 34.9995 20.5305 34.9995 20.8442L35.5656 56.9326C35.5656 57.8736 36.1316 58.7155 36.9888 59.0622L66.4233 70.9486C66.4556 70.9651 66.488 70.9321 66.4718 70.9156L66.3909 34.9593C66.3909 34.1834 65.9381 33.5065 65.2427 33.1928L35.5979 20.4315Z" fill="white" stroke="#0062AD" stroke-width="1.5" stroke-miterlimit="10"/>
<path d="M80.7847 27.8231V42.3381L89.3692 38.4797V24.2152L80.7847 27.8231Z" fill="#0062AD" stroke="#0062AD" stroke-miterlimit="10"/>
<path d="M80.4027 28.0305L73.1519 24.3684L82.0528 20.3998L89.3671 24.0959L80.4027 28.0305Z" fill="#0062AD" stroke="#0062AD" stroke-miterlimit="10"/>
<path d="M50.7371 27.0767L81.7368 13.9796L67.5207 8.25664C66.7828 7.92 65.9466 7.92 65.2087 8.22458L36.1371 20.6324C35.8911 20.7446 35.8911 21.0973 36.1371 21.1934L50.7371 27.0767Z" fill="#0062AD" stroke="#0062AD" stroke-miterlimit="10"/>
</g>
</svg>
