<svg width="8" height="14" viewBox="0 0 8 14" fill="none" xmlns="http://www.w3.org/2000/svg">
<path d="M7.99898 7.04338C7.98946 7.32913 7.87439 7.60152 7.67543 7.80886L2.02751 13.6411C1.73581 13.942 1.30442 14.0656 0.895824 13.9657C0.487245 13.8657 0.163359 13.5573 0.0464929 13.1565C-0.0705502 12.7557 0.036972 12.3235 0.32867 12.0226L5.18992 6.99976L0.328671 1.97695C0.0369708 1.67607 -0.0705497 1.24384 0.0464934 0.843043C0.163368 0.44224 0.487233 0.133885 0.895825 0.0337786C1.3044 -0.0661359 1.73579 0.0575371 2.02751 0.358426L7.67543 6.19066C7.89556 6.41978 8.01227 6.72769 7.99898 7.04371L7.99898 7.04338Z" fill="#2361A9"/>
</svg>
