<svg width="40" height="40" viewBox="0 0 40 40" fill="none" xmlns="http://www.w3.org/2000/svg">
<path d="M35 16.6666H5M35 20.8333V14.6666C35 11.8664 35 10.4663 34.455 9.39669C33.9757 8.45588 33.2108 7.69098 32.27 7.21161C31.2004 6.66665 29.8003 6.66665 27 6.66665H13C10.1997 6.66665 8.79961 6.66665 7.73005 7.21161C6.78924 7.69098 6.02433 8.45588 5.54497 9.39669C5 10.4663 5 11.8664 5 14.6666V28.6666C5 31.4669 5 32.867 5.54497 33.9366C6.02433 34.8774 6.78924 35.6423 7.73005 36.1217C8.79961 36.6666 10.1997 36.6666 13 36.6666H20M26.6667 3.33331V9.99998M13.3333 3.33331V9.99998" stroke="#1E579F" stroke-width="2" stroke-linecap="round" stroke-linejoin="round"/>
<path d="M36.5208 27.1551L30.5 30.5M30.5 30.5L24.4791 27.1551M30.5 30.5L30.5 37.2291M36.875 33.3748V27.6252C36.875 27.3825 36.875 27.2611 36.8392 27.1529C36.8076 27.0571 36.7559 26.9692 36.6876 26.8951C36.6103 26.8113 36.5042 26.7523 36.2921 26.6345L31.0504 23.7224C30.8495 23.6108 30.7491 23.555 30.6427 23.5331C30.5486 23.5138 30.4515 23.5138 30.3573 23.5331C30.2509 23.555 30.1505 23.6108 29.9496 23.7224L24.7079 26.6345C24.4958 26.7523 24.3897 26.8113 24.3124 26.8951C24.2441 26.9692 24.1924 27.0571 24.1608 27.1529C24.125 27.2611 24.125 27.3825 24.125 27.6252V33.3748C24.125 33.6175 24.125 33.7388 24.1608 33.8471C24.1924 33.9428 24.2441 34.0307 24.3124 34.1049C24.3897 34.1887 24.4958 34.2476 24.7079 34.3655L29.9496 37.2775C30.1505 37.3891 30.2509 37.4449 30.3573 37.4668C30.4515 37.4862 30.5486 37.4862 30.6427 37.4668C30.7491 37.4449 30.8495 37.3891 31.0504 37.2775L36.2921 34.3655C36.5042 34.2476 36.6103 34.1887 36.6876 34.1049C36.7559 34.0307 36.8076 33.9428 36.8392 33.8471C36.875 33.7388 36.875 33.6175 36.875 33.3748Z" stroke="#1E579F" stroke-width="2" stroke-linecap="round" stroke-linejoin="round"/>
</svg>
