<svg width="40" height="40" viewBox="0 0 40 40" fill="none" xmlns="http://www.w3.org/2000/svg">
<path d="M14.1666 24.4444C14.1666 26.5922 15.9077 28.3333 18.0555 28.3333H21.6666C23.9678 28.3333 25.8333 26.4678 25.8333 24.1666C25.8333 21.8655 23.9678 20 21.6666 20H18.3333C16.0321 20 14.1666 18.1345 14.1666 15.8333C14.1666 13.5321 16.0321 11.6666 18.3333 11.6666H21.9444C24.0921 11.6666 25.8333 13.4078 25.8333 15.5555M19.9999 9.16665V11.6666M19.9999 28.3333V30.8333M36.6666 20C36.6666 10.7952 29.2047 3.33331 19.9999 3.33331C10.7952 3.33331 3.33325 10.7952 3.33325 20C3.33325 29.2047 10.7952 36.6666 19.9999 36.6666" stroke="#1E579F" stroke-width="2" stroke-linecap="round" stroke-linejoin="round"/>
<path d="M27 32L32 27M32 27L37 32M32 27V37" stroke="#1E579F" stroke-width="2" stroke-linecap="round" stroke-linejoin="round"/>
</svg>
