<svg width="40" height="40" viewBox="0 0 40 40" fill="none" xmlns="http://www.w3.org/2000/svg">
<path d="M11.8333 23.1111C11.8333 25.2589 13.5744 27 15.7222 27H19.3333C21.6345 27 23.5 25.1345 23.5 22.8333C23.5 20.5321 21.6345 18.6667 19.3333 18.6667H16C13.6988 18.6667 11.8333 16.8012 11.8333 14.5C11.8333 12.1988 13.6988 10.3333 16 10.3333H19.6111C21.7589 10.3333 23.5 12.0744 23.5 14.2222M17.6667 7.83333V10.3333M17.6667 27V29.5M34.3333 18.6667C34.3333 9.46192 26.8714 2 17.6667 2C8.46192 2 1 9.46192 1 18.6667C1 27.8714 8.46192 35.3333 17.6667 35.3333" stroke="#1E579F" stroke-width="2" stroke-linecap="round" stroke-linejoin="round"/>
<path d="M37.5208 28.1551L31.5 31.5M31.5 31.5L25.4791 28.1551M31.5 31.5L31.5 38.2291M37.875 34.3748V28.6252C37.875 28.3825 37.875 28.2611 37.8392 28.1529C37.8076 28.0571 37.7559 27.9692 37.6876 27.8951C37.6103 27.8113 37.5042 27.7523 37.2921 27.6345L32.0504 24.7224C31.8495 24.6108 31.7491 24.555 31.6427 24.5331C31.5486 24.5138 31.4515 24.5138 31.3573 24.5331C31.2509 24.555 31.1505 24.6108 30.9496 24.7224L25.7079 27.6345C25.4958 27.7523 25.3897 27.8113 25.3124 27.8951C25.2441 27.9692 25.1924 28.0571 25.1608 28.1529C25.125 28.2611 25.125 28.3825 25.125 28.6252V34.3748C25.125 34.6175 25.125 34.7388 25.1608 34.8471C25.1924 34.9428 25.2441 35.0307 25.3124 35.1049C25.3897 35.1887 25.4958 35.2476 25.7079 35.3655L30.9496 38.2775C31.1505 38.3891 31.2509 38.4449 31.3573 38.4668C31.4515 38.4862 31.5486 38.4862 31.6427 38.4668C31.7491 38.4449 31.8495 38.3891 32.0504 38.2775L37.2921 35.3655C37.5042 35.2476 37.6103 35.1887 37.6876 35.1049C37.7559 35.0307 37.8076 34.9428 37.8392 34.8471C37.875 34.7388 37.875 34.6175 37.875 34.3748Z" stroke="#1E579F" stroke-width="2" stroke-linecap="round" stroke-linejoin="round"/>
</svg>
