<svg width="52" height="52" viewBox="0 0 52 52" fill="none" xmlns="http://www.w3.org/2000/svg">
<path d="M19.35 10.5625V10.5625V8.89175C18.9434 8.72883 18.5843 8.46511 18.3068 8.1247C18.0068 7.75665 17.8139 7.31314 17.7492 6.84275C17.6844 6.37236 17.7504 5.89322 17.9398 5.45781C18.1292 5.0224 18.4347 4.64749 18.823 4.37416C19.2113 4.10082 19.6672 3.93959 20.141 3.90812C20.6148 3.87666 21.0881 3.97617 21.5091 4.19575C21.9301 4.41534 22.2826 4.74654 22.5279 5.15308C22.7732 5.55962 22.9019 6.02583 22.9 6.50065C22.8978 7.0339 22.7309 7.55344 22.4221 7.9882C22.134 8.39387 21.7355 8.70723 21.275 8.89175V9.92818L25.0375 11.5408V5.64175C24.5059 5.42874 24.0589 5.04485 23.7681 4.54916C23.4593 4.02268 23.3465 3.40397 23.4497 2.80238C23.553 2.20079 23.8655 1.65505 24.3322 1.26163C24.7989 0.868209 25.3896 0.652429 26 0.652429C26.6104 0.652429 27.2011 0.868209 27.6678 1.26163C28.1344 1.65505 28.447 2.20079 28.5502 2.80238C28.6534 3.40397 28.5407 4.02268 28.2318 4.54916C27.941 5.04485 27.4941 5.42874 26.9625 5.64175V12.9634L30.725 10.8135V9.70425C30.1934 9.49124 29.7464 9.10735 29.4556 8.61166C29.1468 8.08518 29.034 7.46647 29.1372 6.86488C29.2405 6.26329 29.553 5.71755 30.0197 5.32413C30.4864 4.93071 31.0771 4.71493 31.6875 4.71493C32.2979 4.71493 32.8886 4.93071 33.3553 5.32413C33.8219 5.71755 34.1345 6.26329 34.2377 6.86488C34.3409 7.46647 34.2282 8.08518 33.9193 8.61166C33.6285 9.10735 33.1816 9.49124 32.65 9.70425V11.3747V11.375H32.5C32.5003 11.5179 32.4629 11.6584 32.3915 11.7822C32.3202 11.906 32.2175 12.0088 32.0937 12.0803L19.35 10.5625ZM19.35 10.5625C19.35 10.7509 19.4053 10.9351 19.509 11.0923C19.6126 11.2495 19.7602 11.3729 19.9333 11.4471L19.9333 11.4471L25.0375 13.6344L19.35 10.5625ZM31.6875 6.65003C31.8185 6.65003 31.9466 6.68888 32.0555 6.76168C32.1645 6.83447 32.2494 6.93794 32.2995 7.059C32.3497 7.18006 32.3628 7.31326 32.3373 7.44177C32.3117 7.57029 32.2486 7.68833 32.1559 7.78098C32.0633 7.87364 31.9452 7.93673 31.8167 7.9623C31.6882 7.98786 31.555 7.97474 31.434 7.9246C31.3129 7.87445 31.2094 7.78954 31.1366 7.68059C31.0638 7.57164 31.025 7.44356 31.025 7.31253C31.025 7.13682 31.0948 6.96831 31.219 6.84407C31.3433 6.71982 31.5118 6.65003 31.6875 6.65003ZM26 2.58753C26.131 2.58753 26.2591 2.62638 26.368 2.69918C26.477 2.77197 26.5619 2.87544 26.612 2.9965C26.6622 3.11756 26.6753 3.25076 26.6498 3.37927C26.6242 3.50779 26.5611 3.62583 26.4684 3.71848C26.3758 3.81114 26.2577 3.87423 26.1292 3.8998C26.0007 3.92536 25.8675 3.91224 25.7465 3.8621C25.6254 3.81195 25.5219 3.72704 25.4491 3.61809C25.3763 3.50914 25.3375 3.38106 25.3375 3.25003C25.3375 3.07432 25.4073 2.90581 25.5315 2.78157C25.6558 2.65733 25.8243 2.58753 26 2.58753ZM20.3125 7.16253C20.1814 7.16253 20.0534 7.12367 19.9444 7.05087C19.8355 6.97808 19.7506 6.87461 19.7004 6.75355C19.6503 6.6325 19.6371 6.49929 19.6627 6.37078C19.6883 6.24227 19.7514 6.12422 19.844 6.03157C19.9367 5.93892 20.0547 5.87582 20.1832 5.85026C20.3117 5.82469 20.445 5.83781 20.566 5.88796C20.6871 5.9381 20.7905 6.02301 20.8633 6.13196C20.9361 6.24091 20.975 6.369 20.975 6.50003C20.975 6.67573 20.9052 6.84424 20.7809 6.96848C20.6567 7.09273 20.4882 7.16253 20.3125 7.16253Z" fill="#2361A9" stroke="#2361A9" stroke-width="0.3"/>
<path d="M14.8594 41.9299C15.3685 41.7987 15.6997 41.2901 15.5839 40.7695C15.4688 40.2518 14.9523 39.9196 14.4328 40.0523C12.8594 40.4543 11.6596 40.9345 10.8498 41.4956C10.0386 42.0577 9.6 42.7156 9.6 43.4688C9.6 44.4388 10.3302 45.1988 11.4276 45.7905C12.5313 46.3856 14.0527 46.8372 15.7379 47.1759C19.1111 47.8538 23.1843 48.0875 26 48.0875C28.8157 48.0875 32.8889 47.8538 36.2621 47.1759C37.9473 46.8372 39.4687 46.3856 40.5724 45.7905C41.6698 45.1988 42.4 44.4388 42.4 43.4688C42.4 42.7156 41.9616 42.0577 41.1504 41.4956C40.3407 40.9345 39.1409 40.4542 37.5672 40.0523C37.0477 39.9196 36.5312 40.2518 36.4161 40.7695C36.3003 41.2901 36.6315 41.7987 37.1406 41.9299C38.5512 42.2935 39.3979 42.6646 39.8882 42.9615C40.1334 43.11 40.2862 43.238 40.3756 43.3343C40.4204 43.3825 40.4473 43.4207 40.4623 43.4475C40.4703 43.462 40.4736 43.4708 40.4748 43.4743C40.4717 43.5143 40.4352 43.598 40.2934 43.7225C40.1521 43.8464 39.9327 43.9874 39.6301 44.1376C39.026 44.4376 38.1139 44.7633 36.895 45.064C34.4589 45.6652 30.815 46.1625 26 46.1625C21.185 46.1625 17.5411 45.6652 15.105 45.064C13.8861 44.7633 12.974 44.4376 12.3699 44.1376C12.0673 43.9874 11.8479 43.8464 11.7066 43.7225C11.5647 43.598 11.5283 43.5143 11.5252 43.4743C11.5264 43.4708 11.5297 43.462 11.5377 43.4475C11.5527 43.4207 11.5796 43.3825 11.6244 43.3343C11.7138 43.238 11.8666 43.11 12.1118 42.9615C12.6021 42.6646 13.4488 42.2935 14.8594 41.9299Z" fill="#2361A9" stroke="#2361A9" stroke-width="0.3"/>
<path d="M34.5 27.2778L26 32M26 32L17.5 27.2778M26 32L26 41.5M35 36.0586V27.9415C35 27.5988 35 27.4275 34.9495 27.2747C34.9049 27.1395 34.8318 27.0154 34.7354 26.9108C34.6263 26.7924 34.4766 26.7092 34.177 26.5428L26.777 22.4317C26.4934 22.2741 26.3516 22.1954 26.2015 22.1645C26.0685 22.1371 25.9315 22.1371 25.7986 22.1645C25.6484 22.1954 25.5066 22.2741 25.223 22.4317L17.823 26.5428C17.5234 26.7092 17.3737 26.7924 17.2646 26.9108C17.1682 27.0154 17.0951 27.1395 17.0505 27.2747C17 27.4275 17 27.5988 17 27.9415V36.0586C17 36.4012 17 36.5725 17.0505 36.7253C17.0951 36.8605 17.1682 36.9846 17.2646 37.0893C17.3737 37.2076 17.5234 37.2908 17.823 37.4572L25.223 41.5683C25.5066 41.7259 25.6484 41.8047 25.7986 41.8356C25.9315 41.8629 26.0685 41.8629 26.2015 41.8356C26.3516 41.8047 26.4934 41.7259 26.777 41.5683L34.177 37.4572C34.4766 37.2908 34.6263 37.2076 34.7354 37.0893C34.8318 36.9846 34.9049 36.8605 34.9495 36.7253C35 36.5725 35 36.4012 35 36.0586Z" stroke="#2361A9" stroke-width="2" stroke-linecap="round" stroke-linejoin="round"/>
<path d="M2.2875 43.4687C2.2875 44.7899 3.0887 45.9383 4.4245 46.911C5.76091 47.884 7.65389 48.6982 9.89311 49.352C14.3734 50.6602 20.279 51.3375 26 51.3375C31.721 51.3375 37.6266 50.6602 42.1069 49.352C44.3461 48.6982 46.2391 47.884 47.5755 46.911C48.9113 45.9383 49.7125 44.7899 49.7125 43.4687C49.7125 41.9584 48.6345 40.6032 46.7018 39.4638C44.7647 38.3217 41.9341 37.3737 38.344 36.6855C37.8197 36.585 37.3192 36.9371 37.2273 37.4603C37.1351 37.9849 37.4878 38.4813 38.0069 38.5812C41.4142 39.2372 43.8731 40.0961 45.4759 40.9822C46.2775 41.4253 46.8594 41.8721 47.239 42.2988C47.6193 42.7263 47.7875 43.1226 47.7875 43.4687C47.7875 44.1098 47.2819 44.8118 46.2439 45.5124C45.2147 46.207 43.7003 46.8734 41.7737 47.4527C37.9225 48.6107 32.4532 49.4125 26 49.4125C19.5468 49.4125 14.0775 48.6107 10.2263 47.4527C8.29969 46.8734 6.78534 46.207 5.75608 45.5124C4.71807 44.8118 4.2125 44.1098 4.2125 43.4687C4.2125 43.1226 4.38071 42.7263 4.76099 42.2988C5.14063 41.8721 5.72247 41.4253 6.52407 40.9822C8.12692 40.0961 10.5858 39.2372 13.9931 38.5812C14.5122 38.4813 14.8649 37.9849 14.7727 37.4603C14.6808 36.9371 14.1803 36.585 13.656 36.6855C10.0659 37.3737 7.23531 38.3217 5.29818 39.4638C3.36546 40.6032 2.2875 41.9584 2.2875 43.4687Z" fill="#2361A9" stroke="#2361A9" stroke-width="0.3"/>
</svg>
