<svg width="40" height="40" viewBox="0 0 40 40" fill="none" xmlns="http://www.w3.org/2000/svg">
<g clip-path="url(#clip0_4535_11762)">
<path d="M10.1875 16.0677C9.70542 16.0677 9.31421 16.4643 9.31421 16.954V20.7355C9.31421 21.2252 9.70542 21.6218 10.1875 21.6218H21.3651C21.8472 21.6218 22.2384 21.2252 22.2384 20.7355V16.954C22.2384 16.4643 21.8472 16.0677 21.3651 16.0677H10.1875ZM20.4918 19.8492H11.0608V17.8404H20.4918V19.8492Z" fill="#1E579F"/>
<path d="M24.9478 38.6263C24.9955 38.6341 25.0432 38.6383 25.0914 38.6383C25.1723 38.6383 25.2531 38.6268 25.3313 38.6042L31.8515 36.7134C31.9033 36.6982 31.9538 36.6784 32.0024 36.6539L37.5912 33.8178C37.887 33.6675 38.0737 33.3608 38.0737 33.0251C38.0737 32.3468 37.8038 31.4678 37.1423 30.8821V14.5513C37.1423 14.0615 36.7515 13.6649 36.2689 13.6649C35.7869 13.6649 35.3956 14.0615 35.3956 14.5513V30.2494C35.3761 30.2494 35.3575 30.248 35.3375 30.248C33.53 30.248 31.1886 31.6476 30.4225 32.1388H26.3291L23.855 30.13H27.8858C28.3679 30.13 28.7591 29.7334 28.7591 29.2436V27.3529C28.7591 25.8214 27.5314 24.5758 26.0228 24.5758H17.6397C17.4079 24.5758 17.1857 24.669 17.0222 24.8355L13.5521 28.3573H11.9927V28.2983C11.9927 27.8085 11.6015 27.4119 11.1194 27.4119H7.33539V5.55045H17.6978V12.227C17.6978 12.8215 18.2908 13.2559 18.8474 13.0677L21.3655 12.216L23.8837 13.0677C24.4403 13.2559 25.0332 12.8215 25.0332 12.227V5.55045H35.3956V17.4082C35.3956 17.8975 35.7864 18.2941 36.2689 18.2941C36.7515 18.2941 37.1423 17.8975 37.1423 17.4082V4.66411C37.1423 4.17436 36.7515 3.77777 36.2689 3.77777H6.46209C5.98 3.77777 5.58879 4.17436 5.58879 4.66411V27.4119H0.873304C0.390761 27.4119 0 27.8085 0 28.2983C0 28.788 0.390761 29.1846 0.873304 29.1846H10.2461V36.8656H0.873304C0.390761 36.8656 0 37.2622 0 37.7519C0 38.2417 0.390761 38.6383 0.873304 38.6383H11.1194C11.6015 38.6383 11.9927 38.2417 11.9927 37.7519V36.7476H13.8411L24.9478 38.6263ZM23.2866 5.55045V10.9976L21.6418 10.441C21.4637 10.3806 21.2674 10.3806 21.0893 10.441L19.4444 10.9976V5.55045H23.2866ZM11.9927 30.13H13.9138C14.1433 30.13 14.3682 30.0341 14.5313 29.8704L18.0013 26.3485H26.0228C26.5685 26.3485 27.0125 26.7991 27.0125 27.3529V28.3573H21.3655C21.0057 28.3573 20.6776 28.5907 20.5495 28.9301C20.4172 29.281 20.5272 29.7025 20.8198 29.9358L25.4771 33.7173C25.6321 33.8427 25.8247 33.9115 26.0228 33.9115H30.6802C30.8524 33.9115 31.0209 33.8598 31.1645 33.7625C31.8806 33.2778 34.0262 32.0207 35.3375 32.0207C35.8527 32.0207 36.1049 32.2596 36.2249 32.5294L31.2936 35.0316L25.0409 36.8449L14.0574 34.9869C14.0488 34.9855 14.0406 34.985 14.0324 34.9841C14.0165 34.9818 14.001 34.9799 13.9856 34.9786C13.9701 34.9772 13.9547 34.9767 13.9397 34.9763C13.9311 34.9758 13.9224 34.9749 13.9138 34.9749H11.9927V30.13Z" fill="#1E579F"/>
</g>
<defs>
<clipPath id="clip0_4535_11762">
<rect width="40" height="40" fill="white"/>
</clipPath>
</defs>
</svg>
