<svg width="112" height="112" viewBox="0 0 112 112" fill="none" xmlns="http://www.w3.org/2000/svg">
<mask id="mask0_4535_11896" style="mask-type:alpha" maskUnits="userSpaceOnUse" x="0" y="0" width="112" height="112">
<rect width="112" height="112" fill="#D9D9D9"/>
</mask>
<g mask="url(#mask0_4535_11896)">
<path d="M56.0474 96.5158C75.4036 96.5158 91.0948 87.6726 91.0948 76.7639C91.0948 65.8552 75.4036 57.012 56.0474 57.012C36.6913 57.012 21 65.8552 21 76.7639C21 87.6726 36.6913 96.5158 56.0474 96.5158Z" fill="#DEEBF5"/>
<path d="M24.9551 64.602L21.8479 61.6322C21.3025 61.1098 20.9955 60.3857 21.0001 59.6295L21.2429 11.1418C21.2521 9.6661 22.2604 8.38745 23.6948 8.03915L56.463 0.0785551C57.32 -0.132261 58.2274 0.0877196 58.9011 0.660589L61.3666 3.18929" fill="#0062AD"/>
<path d="M24.9551 64.602L21.8479 61.6322C21.3025 61.1098 20.9955 60.3857 21.0001 59.6295L21.2429 11.1418C21.2521 9.6661 22.2604 8.38745 23.6948 8.03915L56.463 0.0785551C57.32 -0.132261 58.2274 0.0877195 58.9011 0.660589L61.3666 3.18929" stroke="#0062AD" stroke-width="1.5" stroke-miterlimit="10"/>
<path d="M24.2634 63.1676L24.2175 13.8825C24.2175 12.4205 25.2029 11.1419 26.619 10.7753L59.5246 2.22347C60.6841 1.921 61.8207 2.79634 61.8207 3.99707V53.0118C61.8207 54.4646 60.8445 55.7341 59.4467 56.1099L26.5777 64.9366C25.4091 65.2483 24.2634 64.3729 24.2634 63.1676Z" fill="white" stroke="#0062AD" stroke-miterlimit="10"/>
<path d="M27.6048 22.0217L27.5589 17.26C27.5498 16.2014 28.2647 15.271 29.2959 15.0144L57.2152 8.03914C57.7881 7.89707 58.3472 8.32328 58.3518 8.91449L58.4206 13.6212C58.4343 14.6844 57.7194 15.6194 56.6882 15.876L28.7459 22.9017C28.1685 23.0483 27.6093 22.6129 27.6048 22.0217Z" fill="#0062AD" stroke="#0062AD" stroke-width="1.5" stroke-miterlimit="10"/>
<path d="M55.8145 13.9385C56.0321 13.4508 55.9274 12.9301 55.5807 12.7754C55.234 12.6207 54.7766 12.8907 54.559 13.3784C54.3414 13.8661 54.4461 14.3869 54.7928 14.5415C55.1395 14.6962 55.597 14.4262 55.8145 13.9385Z" stroke="white" stroke-miterlimit="10"/>
<path d="M55.8145 13.9385C56.0321 13.4508 55.9274 12.9301 55.5807 12.7754C55.234 12.6207 54.7766 12.8907 54.559 13.3784C54.3414 13.8661 54.4461 14.3869 54.7928 14.5415C55.1395 14.6962 55.597 14.4262 55.8145 13.9385Z" stroke="white" stroke-miterlimit="10"/>
<path d="M55.8145 13.9385C56.0321 13.4508 55.9274 12.9301 55.5807 12.7754C55.234 12.6207 54.7766 12.8907 54.559 13.3784C54.3414 13.8661 54.4461 14.3869 54.7928 14.5415C55.1395 14.6962 55.597 14.4262 55.8145 13.9385Z" stroke="white" stroke-miterlimit="10"/>
<path d="M53.0223 11.7983C53.2399 11.3106 53.1352 10.7899 52.7885 10.6352C52.4418 10.4805 51.9843 10.7505 51.7668 11.2382C51.5492 11.7259 51.6539 12.2466 52.0006 12.4013C52.3473 12.556 52.8047 12.286 53.0223 11.7983Z" stroke="white" stroke-miterlimit="10"/>
<path d="M52.3967 15.0971L55.1923 10.0559" stroke="white" stroke-miterlimit="10" stroke-linecap="round"/>
<path d="M52.6995 28.1581L52.7361 22.4798L58.1669 21.1278V26.7603L52.6995 28.1581Z" fill="white" stroke="#0062AD" stroke-miterlimit="10" stroke-linejoin="round"/>
<path d="M52.6981 28.1584L52.0244 27.5397L52.0611 21.9393L57.556 20.5828L58.1656 21.1282" stroke="#0062AD" stroke-miterlimit="10" stroke-linejoin="round"/>
<path d="M52.6987 22.0496H52.2725V22.4437H52.6987V22.0496Z" fill="#0062AD"/>
<path d="M44.7957 30.0833L44.8323 24.405L50.2677 23.053V28.6855L44.7957 30.0833Z" fill="white" stroke="#0062AD" stroke-miterlimit="10" stroke-linejoin="round"/>
<path d="M44.7945 30.0833L44.1208 29.4646L44.1621 23.8642L49.6525 22.5122L50.2666 23.053" stroke="#0062AD" stroke-miterlimit="10" stroke-linejoin="round"/>
<path d="M44.7949 23.9743H44.3687V24.3684H44.7949V23.9743Z" fill="#0062AD"/>
<path d="M37.1172 31.9438L37.1539 26.2655L42.5892 24.9136V30.546L37.1172 31.9438Z" fill="white" stroke="#0062AD" stroke-miterlimit="10" stroke-linejoin="round"/>
<path d="M37.1158 31.9441L36.4421 31.3254L36.4834 25.7251L41.9738 24.3685L42.5879 24.9139" stroke="#0062AD" stroke-miterlimit="10" stroke-linejoin="round"/>
<path d="M37.1164 25.8349H36.6902V26.229H37.1164V25.8349Z" fill="#0062AD"/>
<path d="M29.4192 33.8686L29.4559 28.1903L34.8867 26.8383V32.4708L29.4192 33.8686Z" fill="white" stroke="#0062AD" stroke-miterlimit="10" stroke-linejoin="round"/>
<path d="M29.4178 33.8685L28.7441 33.2544L28.7854 27.6494L34.2758 26.2975L34.8853 26.8382" stroke="#0062AD" stroke-miterlimit="10" stroke-linejoin="round"/>
<path d="M29.4184 27.7596H28.9922V28.1538H29.4184V27.7596Z" fill="#0062AD"/>
<path d="M52.7366 36.0733L52.7732 30.395L58.204 29.043V34.6755L52.7366 36.0733Z" fill="white" stroke="#0062AD" stroke-miterlimit="10" stroke-linejoin="round"/>
<path d="M52.7352 36.0734L52.0615 35.4547L52.1028 29.8543L57.5931 28.5023L58.2027 29.0431" stroke="#0062AD" stroke-miterlimit="10" stroke-linejoin="round"/>
<path d="M52.736 29.9643H52.3098V30.3585H52.736V29.9643Z" fill="#0062AD"/>
<path d="M44.8313 37.9983L44.868 32.32L50.2988 30.9726V36.605L44.8313 37.9983Z" fill="white" stroke="#0062AD" stroke-miterlimit="10" stroke-linejoin="round"/>
<path d="M44.8299 37.9983L44.1562 37.3842L44.1975 31.7793L49.6879 30.4273L50.2974 30.9727" stroke="#0062AD" stroke-miterlimit="10" stroke-linejoin="round"/>
<path d="M44.8305 31.8895H44.4043V32.2836H44.8305V31.8895Z" fill="#0062AD"/>
<path d="M37.1509 39.8587L37.1875 34.1804L42.6183 32.8284V38.4609L37.1509 39.8587Z" fill="white" stroke="#0062AD" stroke-miterlimit="10" stroke-linejoin="round"/>
<path d="M37.1512 39.8586L36.4775 39.2399L36.5188 33.6396L42.0092 32.2876L42.6187 32.8284" stroke="#0062AD" stroke-miterlimit="10" stroke-linejoin="round"/>
<path d="M37.1503 33.7497H36.7241V34.1438H37.1503V33.7497Z" fill="#0062AD"/>
<path d="M29.4558 41.7836L29.4925 36.1099L34.9233 34.7579V40.3904L29.4558 41.7836Z" fill="white" stroke="#0062AD" stroke-miterlimit="10" stroke-linejoin="round"/>
<path d="M29.4556 41.7837L28.7773 41.1696L28.8186 35.5692L34.309 34.2127L34.9231 34.758" stroke="#0062AD" stroke-miterlimit="10" stroke-linejoin="round"/>
<path d="M29.457 35.6792H29.0308V36.0733H29.457V35.6792Z" fill="#0062AD"/>
<path d="M52.6995 44.3224L52.7361 38.6441L58.1669 37.2921V42.9246L52.6995 44.3224Z" fill="white" stroke="#0062AD" stroke-miterlimit="10" stroke-linejoin="round"/>
<path d="M52.6981 44.3224L52.0244 43.7037L52.0611 38.1034L57.556 36.7514L58.1656 37.2922" stroke="#0062AD" stroke-miterlimit="10" stroke-linejoin="round"/>
<path d="M52.6987 38.2134H52.2725V38.6076H52.6987V38.2134Z" fill="#0062AD"/>
<path d="M44.7957 46.247L44.8323 40.5687L50.2677 39.2213V44.8537L44.7957 46.247Z" fill="white" stroke="#0062AD" stroke-miterlimit="10" stroke-linejoin="round"/>
<path d="M44.7945 46.2469L44.1208 45.6328L44.1621 40.0279L49.6525 38.6759L50.2666 39.2213" stroke="#0062AD" stroke-miterlimit="10" stroke-linejoin="round"/>
<path d="M44.7949 40.1382H44.3687V40.5323H44.7949V40.1382Z" fill="#0062AD"/>
<path d="M37.1172 48.1077L37.1539 42.4295L42.5892 41.0775V46.7099L37.1172 48.1077Z" fill="white" stroke="#0062AD" stroke-miterlimit="10" stroke-linejoin="round"/>
<path d="M37.1158 48.1077L36.4421 47.489L36.4834 41.8886L41.9738 40.5367L42.5879 41.0774" stroke="#0062AD" stroke-miterlimit="10" stroke-linejoin="round"/>
<path d="M37.1164 41.9988H36.6902V42.3929H37.1164V41.9988Z" fill="#0062AD"/>
<path d="M29.4192 50.0327L29.4559 44.359L34.8867 43.007V48.6395L29.4192 50.0327Z" fill="white" stroke="#0062AD" stroke-miterlimit="10" stroke-linejoin="round"/>
<path d="M29.4178 50.0327L28.7441 49.4185L28.7854 43.8182L34.2758 42.4616L34.8853 43.007" stroke="#0062AD" stroke-miterlimit="10" stroke-linejoin="round"/>
<path d="M29.4184 43.9288H28.9922V44.3229H29.4184V43.9288Z" fill="#0062AD"/>
<path d="M52.6265 52.2372L52.6631 46.5589L58.0985 45.2069V50.8394L52.6265 52.2372Z" fill="white" stroke="#0062AD" stroke-miterlimit="10" stroke-linejoin="round"/>
<path d="M52.6251 52.2372L51.9514 51.6185L51.9927 46.0181L57.483 44.6661L58.0972 45.2069" stroke="#0062AD" stroke-miterlimit="10" stroke-linejoin="round"/>
<path d="M52.6257 46.1282H52.1995V46.5223H52.6257V46.1282Z" fill="#0062AD"/>
<path d="M44.7268 54.1667L44.7635 48.4884L50.1943 47.1364V52.7689L44.7268 54.1667Z" fill="white" stroke="#0062AD" stroke-miterlimit="10" stroke-linejoin="round"/>
<path d="M44.7255 54.1666L44.0518 53.5479L44.093 47.9476L49.5834 46.591L50.1929 47.1364" stroke="#0062AD" stroke-miterlimit="10" stroke-linejoin="round"/>
<path d="M44.726 48.0577H44.2998V48.4519H44.726V48.0577Z" fill="#0062AD"/>
<path d="M37.0442 56.0229L37.0808 50.3446L42.5117 48.9926V54.6251L37.0442 56.0229Z" fill="white" stroke="#0062AD" stroke-miterlimit="10" stroke-linejoin="round"/>
<path d="M37.0428 56.0229L36.3691 55.4042L36.4104 49.8038L41.9008 48.4518L42.5103 48.9926" stroke="#0062AD" stroke-miterlimit="10" stroke-linejoin="round"/>
<path d="M37.0434 49.9135H36.6172V50.3076H37.0434V49.9135Z" fill="#0062AD"/>
<path d="M29.3486 57.9516L29.3853 52.2733L34.8161 50.9213V56.5538L29.3486 57.9516Z" fill="white" stroke="#0062AD" stroke-miterlimit="10" stroke-linejoin="round"/>
<path d="M29.349 57.9517L28.6753 57.333L28.712 51.7326L34.2023 50.3761L34.8165 50.9214" stroke="#0062AD" stroke-miterlimit="10" stroke-linejoin="round"/>
<path d="M29.3478 51.8426H28.9216V52.2367H29.3478V51.8426Z" fill="#0062AD"/>
<path d="M65.3972 89.064V61.0049C65.3972 59.8572 66.089 58.8309 67.1605 58.3854L90.7476 48.6768C90.7883 48.6633 90.829 48.6903 90.829 48.7308V79.0178V79.0313L66.7129 89.9146C66.1025 90.1982 65.3972 89.7391 65.3972 89.064Z" fill="white" stroke="#0062AD" stroke-width="1.5" stroke-miterlimit="10"/>
<path d="M62.95 57.7325L39.2006 48.0654C39.1597 48.052 39.1597 47.9984 39.2006 47.9716L64.7654 37.6474C65.1066 37.5134 65.4751 37.5134 65.8027 37.6474L90.644 47.8107C90.8897 47.9045 90.8897 48.2531 90.644 48.347L67.6317 57.7325C66.1303 58.3761 64.4378 58.3627 62.95 57.7325Z" fill="white" stroke="#0062AD" stroke-width="1.5" stroke-miterlimit="10"/>
<path d="M39.6683 47.9051C39.4257 47.8088 39.1697 47.9876 39.1697 48.249L39.6413 78.3181C39.6413 79.1021 40.1129 79.8037 40.8271 80.0925L65.3522 89.9963C65.3792 90.0101 65.4061 89.9826 65.3926 89.9688L65.3253 60.0098C65.3253 59.3633 64.948 58.7993 64.3685 58.5379L39.6683 47.9051Z" fill="white" stroke="#0062AD" stroke-width="1.5" stroke-miterlimit="10"/>
<path d="M77.3186 54.0635V66.1576L84.4713 62.9427V51.0574L77.3186 54.0635Z" fill="#0062AD" stroke="#0062AD" stroke-miterlimit="10"/>
<path d="M76.9999 54.2366L70.9585 51.1854L78.3748 47.8787L84.4691 50.9583L76.9999 54.2366Z" fill="#0062AD" stroke="#0062AD" stroke-miterlimit="10"/>
<path d="M52.2819 53.4418L78.1111 42.5291L66.2661 37.7607C65.6514 37.4802 64.9546 37.4802 64.3398 37.734L40.1171 48.0723C39.9121 48.1658 39.9121 48.4596 40.1171 48.5398L52.2819 53.4418Z" fill="#0062AD" stroke="#0062AD" stroke-miterlimit="10"/>
</g>
</svg>
