<svg width="112" height="112" viewBox="0 0 112 112" fill="none" xmlns="http://www.w3.org/2000/svg">
<mask id="mask0_4535_11805" style="mask-type:alpha" maskUnits="userSpaceOnUse" x="0" y="0" width="112" height="112">
<rect width="112" height="112" fill="#D9D9D9"/>
</mask>
<g mask="url(#mask0_4535_11805)">
<path d="M56.0474 96.5158C75.4036 96.5158 91.0948 87.6726 91.0948 76.7639C91.0948 65.8552 75.4036 57.012 56.0474 57.012C36.6913 57.012 21 65.8552 21 76.7639C21 87.6726 36.6913 96.5158 56.0474 96.5158Z" fill="#DEEBF5"/>
<path d="M31 74.4724L69.4557 92.2047M69.4557 92.2047L66.64 84.7166M69.4557 92.2047L61.9675 95.0203" stroke="#0062AD" stroke-width="1.5" stroke-linecap="round" stroke-linejoin="round"/>
<path d="M30.75 74.5002L30.7498 35.0002M30.7498 35.0002L25.093 40.6571M30.7498 35.0002L36.4067 40.6571" stroke="#0062AD" stroke-width="1.5" stroke-linecap="round" stroke-linejoin="round"/>
<path d="M31 74.4436L88.5 47.0002M88.5 47.0002L80.7726 44.9297M88.5 47.0002L86.4294 54.7277" stroke="#0062AD" stroke-width="1.5" stroke-linecap="round" stroke-linejoin="round"/>
<path d="M46.3326 55.4345L43.7144 52.9322C43.2549 52.4919 42.9962 51.8818 43 51.2446L43.2047 10.3884C43.2124 9.14499 44.062 8.06759 45.2707 7.7741L72.8814 1.06643C73.6036 0.888792 74.3682 1.07415 74.9358 1.55686L77.0133 3.68757" fill="#0062AD"/>
<path d="M46.3326 55.4345L43.7144 52.9322C43.2549 52.4919 42.9962 51.8818 43 51.2446L43.2047 10.3884C43.2124 9.14499 44.062 8.06759 45.2707 7.7741L72.8814 1.06643C73.6036 0.888792 74.3682 1.07415 74.9358 1.55686L77.0133 3.68757" stroke="#0062AD" stroke-width="1.5" stroke-miterlimit="10"/>
<path d="M45.7505 54.2259L45.7119 12.6978C45.7119 11.4659 46.5422 10.3885 47.7354 10.0796L75.462 2.87378C76.439 2.61891 77.3967 3.35648 77.3967 4.36823V45.6685C77.3967 46.8926 76.5742 47.9623 75.3964 48.279L47.7007 55.7165C46.7159 55.9791 45.7505 55.2415 45.7505 54.2259Z" fill="white" stroke="#0062AD" stroke-miterlimit="10"/>
<path d="M48.5653 19.5563L48.5267 15.544C48.519 14.652 49.1214 13.8681 49.9903 13.6518L73.5154 7.77441C73.9981 7.6547 74.4692 8.01383 74.4731 8.51199L74.531 12.4779C74.5426 13.3738 73.9402 14.1616 73.0713 14.3778L49.5269 20.2977C49.0403 20.4213 48.5692 20.0544 48.5653 19.5563Z" fill="#0062AD" stroke="#0062AD" stroke-width="1.5" stroke-miterlimit="10"/>
<path d="M72.7422 13.2719C72.9255 12.8609 72.8373 12.4221 72.5452 12.2918C72.253 12.1615 71.8676 12.3889 71.6842 12.7999C71.5009 13.2108 71.5891 13.6496 71.8813 13.78C72.1734 13.9103 72.5588 13.6828 72.7422 13.2719Z" stroke="white" stroke-miterlimit="10"/>
<path d="M72.7422 13.2719C72.9255 12.8609 72.8373 12.4221 72.5452 12.2918C72.253 12.1615 71.8676 12.3889 71.6842 12.7999C71.5009 13.2108 71.5891 13.6496 71.8813 13.78C72.1734 13.9103 72.5588 13.6828 72.7422 13.2719Z" stroke="white" stroke-miterlimit="10"/>
<path d="M72.7422 13.2719C72.9255 12.8609 72.8373 12.4221 72.5452 12.2918C72.253 12.1615 71.8676 12.3889 71.6842 12.7999C71.5009 13.2108 71.5891 13.6496 71.8813 13.78C72.1734 13.9103 72.5588 13.6828 72.7422 13.2719Z" stroke="white" stroke-miterlimit="10"/>
<path d="M70.3899 11.4686C70.5732 11.0577 70.485 10.6189 70.1929 10.4886C69.9007 10.3582 69.5153 10.5857 69.332 10.9967C69.1486 11.4076 69.2368 11.8464 69.529 11.9767C69.8211 12.1071 70.2066 11.8796 70.3899 11.4686Z" stroke="white" stroke-miterlimit="10"/>
<path d="M69.8633 14.248L72.2189 10.0002" stroke="white" stroke-miterlimit="10" stroke-linecap="round"/>
<path d="M69.7087 24.7259L69.7396 19.9413L74.3157 18.8021V23.5481L69.7087 24.7259Z" fill="white" stroke="#0062AD" stroke-miterlimit="10" stroke-linejoin="round"/>
<path d="M69.7088 24.7264L69.1411 24.205L69.172 19.4861L73.8021 18.3431L74.3157 18.8026" stroke="#0062AD" stroke-miterlimit="10" stroke-linejoin="round"/>
<path d="M69.7097 19.5792H69.3506V19.9113H69.7097V19.5792Z" fill="#0062AD"/>
<path d="M63.0498 26.3492L63.0807 21.5646L67.6606 20.4254V25.1714L63.0498 26.3492Z" fill="white" stroke="#0062AD" stroke-miterlimit="10" stroke-linejoin="round"/>
<path d="M63.0498 26.349L62.4822 25.8277L62.5169 21.1088L67.1432 19.9696L67.6606 20.4253" stroke="#0062AD" stroke-miterlimit="10" stroke-linejoin="round"/>
<path d="M63.0505 21.2013H62.6914V21.5334H63.0505V21.2013Z" fill="#0062AD"/>
<path d="M56.5818 27.9164L56.6127 23.1319L61.1926 21.9927V26.7386L56.5818 27.9164Z" fill="white" stroke="#0062AD" stroke-miterlimit="10" stroke-linejoin="round"/>
<path d="M56.5804 27.9171L56.0127 27.3957L56.0474 22.6768L60.6737 21.5338L61.1912 21.9933" stroke="#0062AD" stroke-miterlimit="10" stroke-linejoin="round"/>
<path d="M56.5815 22.7691H56.2224V23.1013H56.5815V22.7691Z" fill="#0062AD"/>
<path d="M50.0945 29.5384L50.1254 24.7539L54.7014 23.6147V28.3606L50.0945 29.5384Z" fill="white" stroke="#0062AD" stroke-miterlimit="10" stroke-linejoin="round"/>
<path d="M50.0945 29.5384L49.5269 29.021L49.5616 24.2982L54.1879 23.159L54.7015 23.6147" stroke="#0062AD" stroke-miterlimit="10" stroke-linejoin="round"/>
<path d="M50.0955 24.3912H49.7363V24.7233H50.0955V24.3912Z" fill="#0062AD"/>
<path d="M69.7402 31.3967L69.7711 26.6121L74.3472 25.4729V30.2189L69.7402 31.3967Z" fill="white" stroke="#0062AD" stroke-miterlimit="10" stroke-linejoin="round"/>
<path d="M69.7403 31.3967L69.1726 30.8754L69.2074 26.1564L73.8336 25.0172L74.3472 25.4729" stroke="#0062AD" stroke-miterlimit="10" stroke-linejoin="round"/>
<path d="M69.7412 26.2489H69.3821V26.581H69.7412V26.2489Z" fill="#0062AD"/>
<path d="M63.0786 33.0172L63.1095 28.2326L67.6856 27.0973V31.8432L63.0786 33.0172Z" fill="white" stroke="#0062AD" stroke-miterlimit="10" stroke-linejoin="round"/>
<path d="M63.0786 33.0176L62.511 32.5002L62.5457 27.7774L67.172 26.6382L67.6856 27.0977" stroke="#0062AD" stroke-miterlimit="10" stroke-linejoin="round"/>
<path d="M63.0796 27.8698H62.7205V28.2019H63.0796V27.8698Z" fill="#0062AD"/>
<path d="M56.6084 34.586L56.6393 29.8014L61.2153 28.6622V33.4082L56.6084 34.586Z" fill="white" stroke="#0062AD" stroke-miterlimit="10" stroke-linejoin="round"/>
<path d="M56.6084 34.5858L56.0408 34.0645L56.0755 29.3456L60.7018 28.2064L61.2154 28.6621" stroke="#0062AD" stroke-miterlimit="10" stroke-linejoin="round"/>
<path d="M56.6069 29.4381H56.2478V29.7703H56.6069V29.4381Z" fill="#0062AD"/>
<path d="M50.1267 36.207L50.1576 31.4263L54.7337 30.2871V35.0331L50.1267 36.207Z" fill="white" stroke="#0062AD" stroke-miterlimit="10" stroke-linejoin="round"/>
<path d="M50.126 36.2071L49.5544 35.6897L49.5892 30.9707L54.2154 29.8277L54.7329 30.2872" stroke="#0062AD" stroke-miterlimit="10" stroke-linejoin="round"/>
<path d="M50.1262 31.063H49.7671V31.3951H50.1262V31.063Z" fill="#0062AD"/>
<path d="M69.7087 38.3467L69.7396 33.5621L74.3157 32.4229V37.1689L69.7087 38.3467Z" fill="white" stroke="#0062AD" stroke-miterlimit="10" stroke-linejoin="round"/>
<path d="M69.7088 38.3466L69.1411 37.8253L69.172 33.1064L73.8021 31.9672L74.3157 32.4229" stroke="#0062AD" stroke-miterlimit="10" stroke-linejoin="round"/>
<path d="M69.7097 33.1988H69.3506V33.5309H69.7097V33.1988Z" fill="#0062AD"/>
<path d="M63.0498 39.9687L63.0807 35.1842L67.6606 34.0488V38.7948L63.0498 39.9687Z" fill="white" stroke="#0062AD" stroke-miterlimit="10" stroke-linejoin="round"/>
<path d="M63.0498 39.9681L62.4822 39.4506L62.5169 34.7278L67.1432 33.5886L67.6606 34.0482" stroke="#0062AD" stroke-miterlimit="10" stroke-linejoin="round"/>
<path d="M63.0505 34.8214H62.6914V35.1535H63.0505V34.8214Z" fill="#0062AD"/>
<path d="M56.5818 41.5364L56.6127 36.7518L61.1926 35.6127V40.3586L56.5818 41.5364Z" fill="white" stroke="#0062AD" stroke-miterlimit="10" stroke-linejoin="round"/>
<path d="M56.5804 41.5362L56.0127 41.0148L56.0474 36.2959L60.6737 35.1567L61.1912 35.6124" stroke="#0062AD" stroke-miterlimit="10" stroke-linejoin="round"/>
<path d="M56.5815 36.3891H56.2224V36.7212H56.5815V36.3891Z" fill="#0062AD"/>
<path d="M50.0945 43.1574L50.1254 38.3767L54.7014 37.2375V41.9835L50.0945 43.1574Z" fill="white" stroke="#0062AD" stroke-miterlimit="10" stroke-linejoin="round"/>
<path d="M50.0945 43.1574L49.5269 42.6399L49.5616 37.921L54.1879 36.7779L54.7015 37.2375" stroke="#0062AD" stroke-miterlimit="10" stroke-linejoin="round"/>
<path d="M50.0955 38.014H49.7363V38.3461H50.0955V38.014Z" fill="#0062AD"/>
<path d="M69.6484 45.0156L69.6793 40.2311L74.2592 39.0919V43.8378L69.6484 45.0156Z" fill="white" stroke="#0062AD" stroke-miterlimit="10" stroke-linejoin="round"/>
<path d="M69.6485 45.0156L69.0808 44.4943L69.1156 39.7754L73.7418 38.6362L74.2593 39.0918" stroke="#0062AD" stroke-miterlimit="10" stroke-linejoin="round"/>
<path d="M69.6494 39.8684H69.2903V40.2005H69.6494V39.8684Z" fill="#0062AD"/>
<path d="M62.9907 46.6418L63.0216 41.8572L67.5977 40.718V45.464L62.9907 46.6418Z" fill="white" stroke="#0062AD" stroke-miterlimit="10" stroke-linejoin="round"/>
<path d="M62.9905 46.6418L62.4229 46.1204L62.4576 41.4015L67.0839 40.2585L67.5975 40.718" stroke="#0062AD" stroke-miterlimit="10" stroke-linejoin="round"/>
<path d="M62.9915 41.4939H62.6323V41.8261H62.9915V41.4939Z" fill="#0062AD"/>
<path d="M56.5176 48.2056L56.5485 43.421L61.1245 42.2818V47.0277L56.5176 48.2056Z" fill="white" stroke="#0062AD" stroke-miterlimit="10" stroke-linejoin="round"/>
<path d="M56.5176 48.2054L55.95 47.6841L55.9847 42.9652L60.611 41.826L61.1246 42.2817" stroke="#0062AD" stroke-miterlimit="10" stroke-linejoin="round"/>
<path d="M56.5186 43.0577H56.1594V43.3898H56.5186V43.0577Z" fill="#0062AD"/>
<path d="M50.0334 49.8316L50.0643 45.0471L54.6404 43.9079V48.6538L50.0334 49.8316Z" fill="white" stroke="#0062AD" stroke-miterlimit="10" stroke-linejoin="round"/>
<path d="M50.0345 49.831L49.4668 49.3097L49.4977 44.5907L54.1239 43.4477L54.6414 43.9072" stroke="#0062AD" stroke-miterlimit="10" stroke-linejoin="round"/>
<path d="M50.033 44.6832H49.6738V45.0153H50.033V44.6832Z" fill="#0062AD"/>
<path d="M56.7275 78.7137V56.5389C56.7275 55.6319 57.2742 54.8209 58.121 54.4687L76.7617 46.7961C76.7939 46.7855 76.826 46.8068 76.826 46.8388V70.7743V70.785L57.7673 79.386C57.2849 79.6101 56.7275 79.2473 56.7275 78.7137Z" fill="white" stroke="#0062AD" stroke-width="1.5" stroke-miterlimit="10"/>
<path d="M54.7934 53.9528L36.0245 46.3129C35.9922 46.3023 35.9922 46.2599 36.0245 46.2387L56.228 38.0797C56.4977 37.9737 56.7889 37.9737 57.0478 38.0797L76.6797 46.1116C76.8738 46.1858 76.8738 46.4613 76.6797 46.5354L58.4932 53.9528C57.3067 54.4614 55.9692 54.4508 54.7934 53.9528Z" fill="white" stroke="#0062AD" stroke-width="1.5" stroke-miterlimit="10"/>
<path d="M36.3943 46.1864C36.2026 46.1103 36.0002 46.2516 36.0002 46.4582L36.373 70.2215C36.373 70.8411 36.7457 71.3955 37.3101 71.6238L56.692 79.4507C56.7133 79.4615 56.7346 79.4398 56.724 79.4289L56.6707 55.7526C56.6707 55.2417 56.3725 54.796 55.9146 54.5894L36.3943 46.1864Z" fill="white" stroke="#0062AD" stroke-width="1.5" stroke-miterlimit="10"/>
<path d="M66.1484 51.0533V60.6111L71.8011 58.0704V48.6776L66.1484 51.0533Z" fill="#0062AD" stroke="#0062AD" stroke-miterlimit="10"/>
<path d="M65.8966 51.1901L61.1221 48.7788L66.9831 46.1655L71.7994 48.5993L65.8966 51.1901Z" fill="#0062AD" stroke="#0062AD" stroke-miterlimit="10"/>
<path d="M46.3629 50.5618L66.7754 41.9377L57.4145 38.1692C56.9286 37.9476 56.378 37.9476 55.8921 38.1481L36.7492 46.3183C36.5872 46.3922 36.5872 46.6245 36.7492 46.6878L46.3629 50.5618Z" fill="#0062AD" stroke="#0062AD" stroke-miterlimit="10"/>
</g>
</svg>
