<svg width="112" height="112" viewBox="0 0 112 112" fill="none" xmlns="http://www.w3.org/2000/svg">
<mask id="mask0_4535_11253" style="mask-type:alpha" maskUnits="userSpaceOnUse" x="0" y="0" width="112" height="112">
<rect width="112" height="112" fill="#D9D9D9"/>
</mask>
<g mask="url(#mask0_4535_11253)">
<path d="M56.0474 96.5158C75.4036 96.5158 91.0948 87.6726 91.0948 76.7639C91.0948 65.8552 75.4036 57.012 56.0474 57.012C36.6913 57.012 21 65.8552 21 76.7639C21 87.6726 36.6913 96.5158 56.0474 96.5158Z" fill="#DEEBF5"/>
<path d="M38.3601 86.2171L34.9347 82.9432C34.3335 82.3673 33.995 81.569 34.0001 80.7354L34.2678 27.2827C34.2779 25.6559 35.3894 24.2463 36.9708 23.8623L73.0943 15.0866C74.039 14.8542 75.0394 15.0967 75.7821 15.7282L78.5 18.5159" fill="#0062AD"/>
<path d="M38.3601 86.2171L34.9347 82.9432C34.3335 82.3673 33.995 81.569 34.0001 80.7354L34.2678 27.2827C34.2779 25.6559 35.3894 24.2463 36.9708 23.8623L73.0943 15.0866C74.039 14.8542 75.0394 15.0967 75.7821 15.7282L78.5 18.5159" stroke="#0062AD" stroke-width="1.5" stroke-miterlimit="10"/>
<path d="M37.5971 84.6357L37.5466 30.3039C37.5466 28.6923 38.6329 27.2827 40.194 26.8785L76.4691 17.451C77.7473 17.1176 79.0003 18.0826 79.0003 19.4063V73.44C79.0003 75.0415 77.9241 76.441 76.3832 76.8553L40.1485 86.5859C38.8602 86.9294 37.5971 85.9645 37.5971 84.6357Z" fill="white" stroke="#0062AD" stroke-miterlimit="10"/>
<path d="M41.2808 39.2767L41.2303 34.0274C41.2202 32.8604 42.0084 31.8348 43.1451 31.5519L73.9234 23.8623C74.5549 23.7057 75.1713 24.1756 75.1763 24.8273L75.2521 30.016C75.2673 31.1881 74.4791 32.2187 73.3424 32.5017L42.5389 40.2468C41.9023 40.4084 41.2859 39.9285 41.2808 39.2767Z" fill="#0062AD" stroke="#0062AD" stroke-width="1.5" stroke-miterlimit="10"/>
<path d="M72.379 30.3657C72.6188 29.828 72.5034 29.254 72.1212 29.0834C71.739 28.9129 71.2347 29.2105 70.9948 29.7482C70.755 30.2858 70.8704 30.8599 71.2526 31.0304C71.6348 31.2009 72.1391 30.9033 72.379 30.3657Z" stroke="white" stroke-miterlimit="10"/>
<path d="M72.379 30.3657C72.6188 29.828 72.5034 29.254 72.1212 29.0834C71.739 28.9129 71.2347 29.2105 70.9948 29.7482C70.755 30.2858 70.8704 30.8599 71.2526 31.0304C71.6348 31.2009 72.1391 30.9033 72.379 30.3657Z" stroke="white" stroke-miterlimit="10"/>
<path d="M72.379 30.3657C72.6188 29.828 72.5034 29.254 72.1212 29.0834C71.739 28.9129 71.2347 29.2105 70.9948 29.7482C70.755 30.2858 70.8704 30.8599 71.2526 31.0304C71.6348 31.2009 72.1391 30.9033 72.379 30.3657Z" stroke="white" stroke-miterlimit="10"/>
<path d="M69.3008 28.0065C69.5407 27.4689 69.4253 26.8948 69.0431 26.7243C68.6609 26.5538 68.1566 26.8514 67.9167 27.389C67.6769 27.9267 67.7923 28.5008 68.1745 28.6713C68.5567 28.8418 69.061 28.5442 69.3008 28.0065Z" stroke="white" stroke-miterlimit="10"/>
<path d="M68.6113 31.6429L71.6932 26.0854" stroke="white" stroke-miterlimit="10" stroke-linecap="round"/>
<path d="M68.9453 46.0416L68.9857 39.7819L74.9726 38.2915V44.5007L68.9453 46.0416Z" fill="white" stroke="#0062AD" stroke-miterlimit="10" stroke-linejoin="round"/>
<path d="M68.9439 46.0418L68.2012 45.3597L68.2416 39.1859L74.2992 37.6904L74.9712 38.2916" stroke="#0062AD" stroke-miterlimit="10" stroke-linejoin="round"/>
<path d="M68.9445 39.3074H68.4746V39.7419H68.9445V39.3074Z" fill="#0062AD"/>
<path d="M60.2324 48.1638L60.2728 41.9041L66.2648 40.4137V46.6229L60.2324 48.1638Z" fill="white" stroke="#0062AD" stroke-miterlimit="10" stroke-linejoin="round"/>
<path d="M60.231 48.1638L59.4883 47.4818L59.5338 41.3079L65.5863 39.8175L66.2633 40.4137" stroke="#0062AD" stroke-miterlimit="10" stroke-linejoin="round"/>
<path d="M60.2316 41.4293H59.7617V41.8638H60.2316V41.4293Z" fill="#0062AD"/>
<path d="M51.7673 50.2151L51.8078 43.9554L57.7997 42.4649V48.6741L51.7673 50.2151Z" fill="white" stroke="#0062AD" stroke-miterlimit="10" stroke-linejoin="round"/>
<path d="M51.7659 50.2152L51.0232 49.5332L51.0687 43.3593L57.1212 41.8639L57.7982 42.4651" stroke="#0062AD" stroke-miterlimit="10" stroke-linejoin="round"/>
<path d="M51.7665 43.4808H51.2966V43.9153H51.7665V43.4808Z" fill="#0062AD"/>
<path d="M43.2812 52.3368L43.3217 46.0771L49.3086 44.5867V50.7959L43.2812 52.3368Z" fill="white" stroke="#0062AD" stroke-miterlimit="10" stroke-linejoin="round"/>
<path d="M43.2798 52.3368L42.5371 51.6598L42.5826 45.4809L48.6352 43.9905L49.3071 44.5866" stroke="#0062AD" stroke-miterlimit="10" stroke-linejoin="round"/>
<path d="M43.2804 45.6023H42.8105V46.0368H43.2804V45.6023Z" fill="#0062AD"/>
<path d="M68.9863 54.767L69.0267 48.5073L75.0136 47.0169V53.2261L68.9863 54.767Z" fill="white" stroke="#0062AD" stroke-miterlimit="10" stroke-linejoin="round"/>
<path d="M68.9849 54.767L68.2422 54.085L68.2877 47.9111L74.3402 46.4207L75.0122 47.0169" stroke="#0062AD" stroke-miterlimit="10" stroke-linejoin="round"/>
<path d="M68.9855 48.0325H68.5156V48.467H68.9855V48.0325Z" fill="#0062AD"/>
<path d="M60.2715 56.8889L60.3119 50.6292L66.2988 49.1438V55.353L60.2715 56.8889Z" fill="white" stroke="#0062AD" stroke-miterlimit="10" stroke-linejoin="round"/>
<path d="M60.27 56.889L59.5273 56.212L59.5728 50.0331L65.6254 48.5427L66.2973 49.1439" stroke="#0062AD" stroke-miterlimit="10" stroke-linejoin="round"/>
<path d="M60.2706 50.1545H59.8008V50.589H60.2706V50.1545Z" fill="#0062AD"/>
<path d="M51.8047 58.9401L51.8451 52.6804L57.832 51.1899V57.3991L51.8047 58.9401Z" fill="white" stroke="#0062AD" stroke-miterlimit="10" stroke-linejoin="round"/>
<path d="M51.8052 58.94L51.0625 58.258L51.108 52.0842L57.1605 50.5938L57.8325 51.1899" stroke="#0062AD" stroke-miterlimit="10" stroke-linejoin="round"/>
<path d="M51.8038 52.2055H51.334V52.64H51.8038V52.2055Z" fill="#0062AD"/>
<path d="M43.3223 61.0617L43.3627 54.8071L49.3496 53.3167V59.5259L43.3223 61.0617Z" fill="white" stroke="#0062AD" stroke-miterlimit="10" stroke-linejoin="round"/>
<path d="M43.3219 61.0619L42.5742 60.3849L42.6197 54.211L48.6723 52.7156L49.3493 53.3168" stroke="#0062AD" stroke-miterlimit="10" stroke-linejoin="round"/>
<path d="M43.3234 54.3325H42.8535V54.767H43.3234V54.3325Z" fill="#0062AD"/>
<path d="M68.9453 63.861L68.9857 57.6013L74.9726 56.1108V62.32L68.9453 63.861Z" fill="white" stroke="#0062AD" stroke-miterlimit="10" stroke-linejoin="round"/>
<path d="M68.9439 63.8609L68.2012 63.1789L68.2416 57.0051L74.2992 55.5146L74.9712 56.1108" stroke="#0062AD" stroke-miterlimit="10" stroke-linejoin="round"/>
<path d="M68.9445 57.1265H68.4746V57.561H68.9445V57.1265Z" fill="#0062AD"/>
<path d="M60.2324 65.9825L60.2728 59.7228L66.2648 58.2374V64.4467L60.2324 65.9825Z" fill="white" stroke="#0062AD" stroke-miterlimit="10" stroke-linejoin="round"/>
<path d="M60.231 65.9827L59.4883 65.3057L59.5338 59.1268L65.5863 57.6364L66.2633 58.2376" stroke="#0062AD" stroke-miterlimit="10" stroke-linejoin="round"/>
<path d="M60.2316 59.2482H59.7617V59.6827H60.2316V59.2482Z" fill="#0062AD"/>
<path d="M51.7673 68.0339L51.8078 61.7742L57.7997 60.2838V66.493L51.7673 68.0339Z" fill="white" stroke="#0062AD" stroke-miterlimit="10" stroke-linejoin="round"/>
<path d="M51.7659 68.0339L51.0232 67.3518L51.0687 61.178L57.1212 59.6876L57.7982 60.2837" stroke="#0062AD" stroke-miterlimit="10" stroke-linejoin="round"/>
<path d="M51.7665 61.2994H51.2966V61.7339H51.7665V61.2994Z" fill="#0062AD"/>
<path d="M43.2812 70.1557L43.3217 63.9011L49.3086 62.4106V68.6198L43.2812 70.1557Z" fill="white" stroke="#0062AD" stroke-miterlimit="10" stroke-linejoin="round"/>
<path d="M43.2798 70.1559L42.5371 69.4789L42.5826 63.305L48.6352 61.8096L49.3071 62.4108" stroke="#0062AD" stroke-miterlimit="10" stroke-linejoin="round"/>
<path d="M43.2804 63.4265H42.8105V63.861H43.2804V63.4265Z" fill="#0062AD"/>
<path d="M68.8652 72.5861L68.9056 66.3264L74.8976 64.8359V71.0451L68.8652 72.5861Z" fill="white" stroke="#0062AD" stroke-miterlimit="10" stroke-linejoin="round"/>
<path d="M68.8638 72.586L68.1211 71.904L68.1666 65.7302L74.2191 64.2397L74.8961 64.8359" stroke="#0062AD" stroke-miterlimit="10" stroke-linejoin="round"/>
<path d="M68.8644 65.8516H68.3945V66.2861H68.8644V65.8516Z" fill="#0062AD"/>
<path d="M60.1562 74.713L60.1967 68.4533L66.1836 66.9629V73.1721L60.1562 74.713Z" fill="white" stroke="#0062AD" stroke-miterlimit="10" stroke-linejoin="round"/>
<path d="M60.1548 74.7132L59.4121 74.0311L59.4576 67.8573L65.5102 66.3618L66.1821 66.963" stroke="#0062AD" stroke-miterlimit="10" stroke-linejoin="round"/>
<path d="M60.1554 67.9788H59.6855V68.4133H60.1554V67.9788Z" fill="#0062AD"/>
<path d="M51.6875 76.7594L51.7279 70.4997L57.7148 69.0093V75.2185L51.6875 76.7594Z" fill="white" stroke="#0062AD" stroke-miterlimit="10" stroke-linejoin="round"/>
<path d="M51.686 76.7594L50.9434 76.0773L50.9888 69.9035L57.0414 68.4131L57.7134 69.0093" stroke="#0062AD" stroke-miterlimit="10" stroke-linejoin="round"/>
<path d="M51.6867 70.0247H51.2168V70.4592H51.6867V70.0247Z" fill="#0062AD"/>
<path d="M43.2029 78.8863L43.2433 72.6265L49.2302 71.1361V77.3453L43.2029 78.8863Z" fill="white" stroke="#0062AD" stroke-miterlimit="10" stroke-linejoin="round"/>
<path d="M43.2034 78.8862L42.4607 78.2041L42.5011 72.0303L48.5537 70.5348L49.2307 71.136" stroke="#0062AD" stroke-miterlimit="10" stroke-linejoin="round"/>
<path d="M43.2018 72.1516H42.7319V72.5861H43.2018V72.1516Z" fill="#0062AD"/>
</g>
</svg>
