<svg width="216" height="60" viewBox="0 0 216 60" fill="none" xmlns="http://www.w3.org/2000/svg">
<rect x="0.5" y="0.5" width="215" height="59" rx="7.5" fill="black" stroke="#A6A6A6"/>
<path d="M170.198 45.2813H173.182V25.8991H170.198V45.2813ZM197.081 32.8815L193.659 41.2842H193.557L190.006 32.8815H186.791L192.118 44.6255L189.08 51.1585H192.193L200.4 32.8821L197.081 32.8815ZM180.153 43.0797C179.178 43.0797 177.813 42.6055 177.813 41.4337C177.813 39.9378 179.512 39.3643 180.977 39.3643C182.289 39.3643 182.908 39.6381 183.704 40.0124C183.473 41.8079 181.878 43.0797 180.153 43.0797ZM180.515 32.4576C178.354 32.4576 176.116 33.3805 175.19 35.4251L177.839 36.497C178.405 35.4251 179.459 35.0763 180.566 35.0763C182.11 35.0763 183.679 35.9732 183.704 37.5695V37.7687C183.164 37.4695 182.006 37.0209 180.592 37.0209C177.735 37.0209 174.829 38.5414 174.829 41.384C174.829 43.9772 177.17 45.648 179.794 45.648C181.799 45.648 182.908 44.7753 183.6 43.7526H183.704V45.2496H186.587V37.8183C186.587 34.3773 183.935 32.4576 180.515 32.4576ZM162.069 35.2409H157.824V28.5977H162.069C164.3 28.5977 165.567 30.3879 165.567 31.9192C165.567 33.4212 164.3 35.2409 162.069 35.2409ZM161.992 25.8996H154.841V45.2818H157.824V37.939H161.992C165.3 37.939 168.552 35.6184 168.552 31.9199C168.552 28.2222 165.3 25.8996 161.992 25.8996ZM122.995 43.083C120.933 43.083 119.207 41.4091 119.207 39.1121C119.207 36.7884 120.933 35.0909 122.995 35.0909C125.031 35.0909 126.628 36.7886 126.628 39.1121C126.628 41.4091 125.031 43.083 122.995 43.083ZM126.422 33.9665H126.319C125.649 33.1924 124.36 32.4931 122.738 32.4931C119.335 32.4931 116.218 35.3908 116.218 39.1121C116.218 42.8081 119.335 45.6804 122.738 45.6804C124.36 45.6804 125.649 44.9808 126.319 44.1821H126.422V45.1305C126.422 47.654 125.031 49.002 122.789 49.002C120.96 49.002 119.826 47.7284 119.362 46.6546L116.76 47.7035C117.506 49.4512 119.49 51.6 122.789 51.6C126.294 51.6 129.257 49.6014 129.257 44.7307V32.8925H126.422L126.422 33.9665ZM131.319 45.2807H134.307V25.8985H131.319V45.2807ZM138.714 38.8869C138.637 36.3392 140.751 35.0407 142.27 35.0407C143.456 35.0407 144.46 35.6154 144.796 36.439L138.714 38.8869ZM147.99 36.6886C147.424 35.2158 145.697 32.4931 142.167 32.4931C138.662 32.4931 135.75 35.1655 135.75 39.0868C135.75 42.7833 138.637 45.6805 142.502 45.6805C145.619 45.6805 147.424 43.8328 148.172 42.7584L145.852 41.2596C145.079 42.3588 144.023 43.0831 142.502 43.0831C140.982 43.0831 139.899 42.4085 139.205 41.0848L148.3 37.4384L147.99 36.6886ZM75.5204 34.5163V37.3136H82.4262C82.2201 38.887 81.6789 40.0357 80.8542 40.8351C79.8489 41.8089 78.277 42.8832 75.5203 42.8832C71.2684 42.8832 67.9445 39.5615 67.9445 35.4404C67.9445 31.3194 71.2684 27.9972 75.5203 27.9972C77.8138 27.9972 79.4884 28.8716 80.7254 29.9956L82.7617 28.022C81.0346 26.4238 78.7416 25.2 75.5203 25.2C69.6957 25.2 64.7998 29.7957 64.7998 35.4404C64.7998 41.0846 69.6957 45.6805 75.5203 45.6805C78.6636 45.6805 81.0348 44.6813 82.8898 42.8082C84.7968 40.9599 85.3896 38.3625 85.3896 36.2642C85.3896 35.6155 85.3376 35.016 85.2346 34.5163H75.5204ZM93.2417 43.083C91.1798 43.083 89.4016 41.4345 89.4016 39.0868C89.4016 36.714 91.1798 35.091 93.2417 35.091C95.3029 35.091 97.081 36.714 97.081 39.0868C97.081 41.4345 95.3029 43.083 93.2417 43.083ZM93.2417 32.4931C89.4784 32.4931 86.4125 35.2653 86.4125 39.0868C86.4125 42.8832 89.4784 45.6805 93.2417 45.6805C97.0036 45.6805 100.07 42.8832 100.07 39.0868C100.07 35.2653 97.0036 32.4931 93.2417 32.4931ZM108.138 43.083C106.077 43.083 104.299 41.4345 104.299 39.0868C104.299 36.714 106.077 35.091 108.138 35.091C110.2 35.091 111.977 36.714 111.977 39.0868C111.977 41.4345 110.2 43.083 108.138 43.083ZM108.138 32.4931C104.376 32.4931 101.31 35.2653 101.31 39.0868C101.31 42.8832 104.376 45.6805 108.138 45.6805C111.901 45.6805 114.967 42.8832 114.967 39.0868C114.967 35.2653 111.901 32.4931 108.138 32.4931Z" fill="white"/>
<path d="M31.8481 29.0849L15.75 47.0097C15.7506 47.0134 15.7518 47.0164 15.7524 47.0203C16.2461 48.9667 17.9408 50.3999 19.9521 50.3999C20.7561 50.3999 21.511 50.1718 22.1584 49.7715L22.2098 49.7399L40.3312 38.7705L31.8481 29.0849Z" fill="#EB3131"/>
<path d="M48.1357 26.0335L48.1202 26.0224L40.2967 21.2646L31.4824 29.4925L40.3273 38.7698L48.1096 34.0593C49.474 33.2866 50.4002 31.7777 50.4002 30.0377C50.4002 28.3102 49.4865 26.8088 48.1357 26.0335Z" fill="#F6B60B"/>
<path d="M15.7477 12.989C15.651 13.3634 15.6001 13.7555 15.6001 14.1627V45.8374C15.6001 46.2438 15.6504 46.6373 15.7484 47.0103L32.4022 29.5436L15.7477 12.989Z" fill="#5778C5"/>
<path d="M31.9674 30.0001L40.3003 21.2613L22.1993 10.2521C21.5414 9.83868 20.7734 9.6001 19.9518 9.6001C17.9405 9.6001 16.2434 11.0359 15.7496 12.9846C15.749 12.9865 15.749 12.9878 15.749 12.9895L31.9674 30.0001Z" fill="#3BAD49"/>
<path d="M69.4092 16.6852H68.1928V15.8204H69.36C69.8756 15.8204 70.2928 15.7477 70.6115 15.6024C70.9303 15.4571 71.1623 15.2555 71.3076 14.9977C71.4529 14.7399 71.5256 14.4422 71.5256 14.1047C71.5256 13.7813 71.4459 13.486 71.2865 13.2188C71.1271 12.9469 70.8811 12.7313 70.5482 12.5719C70.2154 12.4079 69.7865 12.3258 69.2615 12.3258C68.8678 12.3258 68.5115 12.4008 68.1928 12.5508C67.874 12.6961 67.6209 12.9 67.4334 13.1625C67.2459 13.4204 67.1521 13.718 67.1521 14.0555H65.7951C65.7951 13.6196 65.8865 13.2282 66.0693 12.8813C66.2521 12.5297 66.5029 12.2321 66.8217 11.9883C67.1404 11.7399 67.5084 11.55 67.9256 11.4188C68.3475 11.2875 68.7928 11.2219 69.2615 11.2219C69.81 11.2219 70.3068 11.2852 70.7521 11.4118C71.1975 11.5336 71.5795 11.7165 71.8982 11.9602C72.217 12.204 72.4607 12.5063 72.6295 12.8672C72.7982 13.2282 72.8826 13.6477 72.8826 14.1258C72.8826 14.4774 72.8006 14.8079 72.6365 15.1172C72.4725 15.4266 72.2381 15.6985 71.9334 15.9329C71.6287 16.1672 71.2631 16.3524 70.8365 16.4883C70.41 16.6196 69.9342 16.6852 69.4092 16.6852ZM68.1928 16.0875H69.4092C69.9857 16.0875 70.499 16.1461 70.949 16.2633C71.399 16.3805 71.7787 16.5516 72.0881 16.7766C72.3975 17.0016 72.6318 17.2805 72.7912 17.6133C72.9553 17.9415 73.0373 18.3188 73.0373 18.7454C73.0373 19.2235 72.9436 19.6477 72.7561 20.018C72.5732 20.3883 72.3131 20.7024 71.9756 20.9602C71.6381 21.218 71.2373 21.4125 70.7732 21.5438C70.3139 21.675 69.81 21.7407 69.2615 21.7407C68.8209 21.7407 68.385 21.6844 67.9537 21.5719C67.5271 21.4547 67.1404 21.2766 66.7936 21.0375C66.4467 20.7938 66.1678 20.4844 65.9568 20.1094C65.7506 19.7344 65.6475 19.2844 65.6475 18.7594H67.0045C67.0045 19.1016 67.0982 19.4157 67.2857 19.7016C67.4779 19.9875 67.7428 20.2172 68.0803 20.3907C68.4178 20.5594 68.8115 20.6438 69.2615 20.6438C69.7771 20.6438 70.2131 20.5641 70.5693 20.4047C70.9303 20.2407 71.2045 20.018 71.392 19.7368C71.5842 19.4508 71.6803 19.1297 71.6803 18.7735C71.6803 18.4594 71.6287 18.1875 71.5256 17.9579C71.4271 17.7235 71.2795 17.5313 71.0826 17.3813C70.8904 17.2313 70.649 17.1211 70.3584 17.0508C70.0725 16.9758 69.7396 16.9383 69.36 16.9383H68.1928V16.0875Z" fill="white"/>
<path d="M79.1891 12.2696L75.8 21.6H74.4149L78.3172 11.3625H79.2102L79.1891 12.2696ZM82.0297 21.6L78.6336 12.2696L78.6125 11.3625H79.5055L83.4219 21.6H82.0297ZM81.8539 17.8102V18.9211H76.1024V17.8102H81.8539Z" fill="white"/>
<path d="M89.0182 16.8118H86.4237L86.4096 15.7219H88.7651C89.1541 15.7219 89.494 15.6563 89.7846 15.525C90.0752 15.3938 90.3002 15.2063 90.4596 14.9625C90.6237 14.7141 90.7057 14.4188 90.7057 14.0766C90.7057 13.7016 90.6331 13.3969 90.4877 13.1625C90.3471 12.9235 90.1291 12.75 89.8338 12.6422C89.5432 12.5297 89.1729 12.4735 88.7229 12.4735H86.726V21.6H85.369V11.3625H88.7229C89.2479 11.3625 89.7166 11.4165 90.1291 11.5243C90.5416 11.6274 90.8909 11.7915 91.1768 12.0165C91.4674 12.2368 91.6877 12.518 91.8377 12.8602C91.9877 13.2024 92.0627 13.6125 92.0627 14.0907C92.0627 14.5125 91.9549 14.8946 91.7393 15.2368C91.5237 15.5743 91.2237 15.8508 90.8393 16.0665C90.4596 16.2821 90.0143 16.4204 89.5034 16.4813L89.0182 16.8118ZM88.9549 21.6H85.8893L86.6557 20.4961H88.9549C89.3862 20.4961 89.7518 20.4211 90.0518 20.2711C90.3565 20.1211 90.5885 19.9102 90.7479 19.6383C90.9073 19.3618 90.987 19.036 90.987 18.661C90.987 18.2813 90.919 17.9532 90.7831 17.6766C90.6471 17.4 90.4338 17.1868 90.1432 17.0368C89.8526 16.8868 89.4776 16.8118 89.0182 16.8118H87.0846L87.0987 15.7219H89.7424L90.0307 16.1157C90.5229 16.1579 90.9401 16.2985 91.2823 16.5375C91.6245 16.7719 91.8846 17.0719 92.0627 17.4375C92.2456 17.8032 92.337 18.2063 92.337 18.6469C92.337 19.2844 92.1963 19.8235 91.9151 20.2641C91.6385 20.7 91.2471 21.0329 90.7409 21.2625C90.2346 21.4875 89.6393 21.6 88.9549 21.6Z" fill="white"/>
<path d="M98.7067 12.2696L95.3176 21.6H93.9325L97.8348 11.3625H98.7278L98.7067 12.2696ZM101.547 21.6L98.1512 12.2696L98.1301 11.3625H99.0231L102.94 21.6H101.547ZM101.372 17.8102V18.9211H95.62V17.8102H101.372Z" fill="white"/>
<path d="M111.573 15.7641V16.868H106.033V15.7641H111.573ZM106.244 11.3625V21.6H104.887V11.3625H106.244ZM112.755 11.3625V21.6H111.405V11.3625H112.755Z" fill="white"/>
<path d="M119.314 11.3625V21.6H117.978V11.3625H119.314ZM122.605 11.3625V12.4735H114.695V11.3625H122.605Z" fill="white"/>
<path d="M127.927 12.2696L124.538 21.6H123.153L127.055 11.3625H127.948L127.927 12.2696ZM130.768 21.6L127.371 12.2696L127.35 11.3625H128.243L132.16 21.6H130.768ZM130.592 17.8102V18.9211H124.84V17.8102H130.592Z" fill="white"/>
<path d="M137.039 16.9243L133.383 11.3625H134.972L137.693 15.7993H139.619L139.401 16.9243H137.039ZM137.77 16.8188L134.796 21.6H133.108L136.912 15.6516L137.77 16.8188ZM140.203 11.3625V21.6H138.86V11.3625H140.203ZM145.631 11.3625L141.961 16.9243H139.669L139.458 15.7993H141.314L144.035 11.3625H145.631ZM144.211 21.6L141.244 16.8188L142.108 15.6516L145.898 21.6H144.211Z" fill="white"/>
<path d="M149.174 19.2516L154.216 11.3625H155.573V21.6H154.216V13.704L149.174 21.6H147.824V11.3625H149.174V19.2516Z" fill="white"/>
<path d="M162.188 11.3625V21.6H160.853V11.3625H162.188ZM165.479 11.3625V12.4735H157.569V11.3625H165.479Z" fill="white"/>
<path d="M168.987 19.2516L174.029 11.3625H175.386V21.6H174.029V13.704L168.987 21.6H167.637V11.3625H168.987V19.2516Z" fill="white"/>
<path d="M185.713 16.6852H184.497V15.8204H185.664C186.18 15.8204 186.597 15.7477 186.916 15.6024C187.234 15.4571 187.466 15.2555 187.612 14.9977C187.757 14.7399 187.83 14.4422 187.83 14.1047C187.83 13.7813 187.75 13.486 187.591 13.2188C187.431 12.9469 187.185 12.7313 186.852 12.5719C186.52 12.4079 186.091 12.3258 185.566 12.3258C185.172 12.3258 184.816 12.4008 184.497 12.5508C184.178 12.6961 183.925 12.9 183.738 13.1625C183.55 13.4204 183.456 13.718 183.456 14.0555H182.099C182.099 13.6196 182.191 13.2282 182.374 12.8813C182.556 12.5297 182.807 12.2321 183.126 11.9883C183.445 11.7399 183.813 11.55 184.23 11.4188C184.652 11.2875 185.097 11.2219 185.566 11.2219C186.114 11.2219 186.611 11.2852 187.056 11.4118C187.502 11.5336 187.884 11.7165 188.202 11.9602C188.521 12.204 188.765 12.5063 188.934 12.8672C189.102 13.2282 189.187 13.6477 189.187 14.1258C189.187 14.4774 189.105 14.8079 188.941 15.1172C188.777 15.4266 188.542 15.6985 188.238 15.9329C187.933 16.1672 187.567 16.3524 187.141 16.4883C186.714 16.6196 186.238 16.6852 185.713 16.6852ZM184.497 16.0875H185.713C186.29 16.0875 186.803 16.1461 187.253 16.2633C187.703 16.3805 188.083 16.5516 188.392 16.7766C188.702 17.0016 188.936 17.2805 189.095 17.6133C189.259 17.9415 189.341 18.3188 189.341 18.7454C189.341 19.2235 189.248 19.6477 189.06 20.018C188.877 20.3883 188.617 20.7024 188.28 20.9602C187.942 21.218 187.541 21.4125 187.077 21.5438C186.618 21.675 186.114 21.7407 185.566 21.7407C185.125 21.7407 184.689 21.6844 184.258 21.5719C183.831 21.4547 183.445 21.2766 183.098 21.0375C182.751 20.7938 182.472 20.4844 182.261 20.1094C182.055 19.7344 181.952 19.2844 181.952 18.7594H183.309C183.309 19.1016 183.402 19.4157 183.59 19.7016C183.782 19.9875 184.047 20.2172 184.384 20.3907C184.722 20.5594 185.116 20.6438 185.566 20.6438C186.081 20.6438 186.517 20.5641 186.874 20.4047C187.234 20.2407 187.509 20.018 187.696 19.7368C187.888 19.4508 187.984 19.1297 187.984 18.7735C187.984 18.4594 187.933 18.1875 187.83 17.9579C187.731 17.7235 187.584 17.5313 187.387 17.3813C187.195 17.2313 186.953 17.1211 186.663 17.0508C186.377 16.9758 186.044 16.9383 185.664 16.9383H184.497V16.0875Z" fill="white"/>
</svg>
