<svg width="40" height="40" viewBox="0 0 40 40" fill="none" xmlns="http://www.w3.org/2000/svg">
<path d="M31.6667 19.5533V11.5827C31.6667 10.2501 31.6667 9.58389 31.4487 9.01117C31.2562 8.50523 30.9434 8.0538 30.5372 7.69588C30.0775 7.29073 29.4537 7.05679 28.206 6.58891L19.2697 3.23779C18.9232 3.10785 18.7499 3.04289 18.5717 3.01713C18.4136 2.99429 18.2531 2.99429 18.095 3.01713C17.9167 3.04289 17.7435 3.10785 17.397 3.23779L8.46067 6.58891C7.213 7.05679 6.58916 7.29073 6.12943 7.69588C5.7233 8.0538 5.41046 8.50523 5.21793 9.01117C5 9.58389 5 10.2501 5 11.5827V19.5533C5 27.7341 13.9233 33.684 17.17 35.5781C17.539 35.7934 17.7235 35.901 17.9839 35.9569C18.1859 36.0002 18.4807 36.0002 18.6828 35.9569C18.9432 35.901 19.1277 35.7934 19.4967 35.5781" stroke="#1E579F" stroke-width="2" stroke-linecap="round" stroke-linejoin="round"/>
<path d="M24 33.1667C24 34.4553 25.0447 35.5 26.3333 35.5H28.5C29.8807 35.5 31 34.3807 31 33C31 31.6193 29.8807 30.5 28.5 30.5H26.5C25.1193 30.5 24 29.3807 24 28C24 26.6193 25.1193 25.5 26.5 25.5H28.6667C29.9553 25.5 31 26.5447 31 27.8333M27.5 24V25.5M27.5 35.5V37" stroke="#1E579F" stroke-width="2" stroke-linecap="round" stroke-linejoin="round"/>
<path d="M14 19.4444L17.3846 23L25 15" stroke="#1E579F" stroke-width="2" stroke-linecap="round" stroke-linejoin="round"/>
</svg>
