<svg width="36" height="36" viewBox="0 0 36 36" fill="none" xmlns="http://www.w3.org/2000/svg">
<g clip-path="url(#clip0_4535_12011)">
<path d="M34.9485 28.3367L32.2817 13.2417C31.7296 10.1173 29.0262 7.84969 25.8536 7.84969H22.0807C22.6512 7.03884 22.9875 6.05201 22.9875 4.98748C22.9875 2.23741 20.75 0 17.9999 0C15.2499 0 13.0124 2.23741 13.0124 4.98755C13.0124 6.05208 13.3487 7.03891 13.9191 7.84976H10.1463C6.97366 7.84976 4.27022 10.1174 3.71819 13.2417L1.05138 28.3367C0.714795 30.2421 1.23497 32.185 2.47837 33.6674C3.72185 35.1499 5.54463 36 7.47956 36H28.5204C30.4554 36 32.2781 35.1498 33.5216 33.6675C34.765 32.1851 35.285 30.2421 34.9485 28.3367ZM17.9999 2.12534C19.5782 2.12534 20.8621 3.40931 20.8621 4.98755C20.8621 6.56578 19.5781 7.84976 17.9999 7.84976C16.4218 7.84976 15.1377 6.56578 15.1377 4.98755C15.1377 3.40931 16.4217 2.12534 17.9999 2.12534ZM31.8932 32.3016C31.0546 33.3013 29.8253 33.8747 28.5204 33.8747H7.47956C6.1747 33.8747 4.94536 33.3013 4.10681 32.3016C3.26826 31.3018 2.9174 29.9914 3.14444 28.7065L5.81126 13.6115C6.18356 11.5045 8.00676 9.97502 10.1464 9.97502H25.8537C27.9934 9.97502 29.8166 11.5043 30.1888 13.6114L32.8556 28.7064C33.0826 29.9914 32.7317 31.3018 31.8932 32.3016Z" fill="#1E579F"/>
<path d="M14.5058 21.9248L17.1687 19.1731C17.5769 18.7515 17.5658 18.0787 17.1441 17.6706C16.7222 17.2623 16.0495 17.2735 15.6413 17.6952L12.6632 20.7725V18.4342C12.6632 17.8473 12.1874 17.3715 11.6005 17.3715C11.0136 17.3715 10.5378 17.8473 10.5378 18.4342V25.4156C10.5378 26.0025 11.0136 26.4783 11.6005 26.4783C12.1874 26.4783 12.6632 26.0025 12.6632 25.4156V23.0772L15.6413 26.1545C15.8497 26.37 16.1273 26.4783 16.4051 26.4783C16.6712 26.4783 16.9377 26.3789 17.1441 26.1792C17.5658 25.7711 17.5768 25.0984 17.1687 24.6766L14.5058 21.9248Z" fill="#1E579F"/>
<path d="M24.3998 21.1625H22.8046C22.2177 21.1625 21.7419 21.6383 21.7419 22.2252C21.7419 22.8121 22.2177 23.2879 22.8046 23.2879H23.3196C23.2184 23.8916 22.6922 24.353 22.0602 24.353C21.3561 24.353 20.7832 23.7802 20.7832 23.0761V20.7739C20.7832 20.0698 21.3561 19.497 22.0602 19.497C22.4563 19.497 22.8236 19.6764 23.0679 19.9894C23.4289 20.452 24.0968 20.5344 24.5594 20.1732C25.022 19.812 25.1043 19.1443 24.7433 18.6817C24.0935 17.8492 23.1155 17.3717 22.0602 17.3717C20.1842 17.3717 18.658 18.898 18.658 20.774V23.0762C18.658 24.9522 20.1842 26.4784 22.0602 26.4784C23.9362 26.4784 25.4625 24.9522 25.4625 23.0762V22.2254C25.4625 21.6383 24.9867 21.1625 24.3998 21.1625Z" fill="#1E579F"/>
</g>
<defs>
<clipPath id="clip0_4535_12011">
<rect width="36" height="36" fill="white"/>
</clipPath>
</defs>
</svg>
