<svg width="55" height="55" viewBox="0 0 55 55" fill="none" xmlns="http://www.w3.org/2000/svg">
<path d="M16.3108 14.8733C16.0174 14.8733 15.7241 14.761 15.4995 14.5387L11.7274 10.7643L7.95536 14.5387C7.50849 14.9856 6.78203 14.9856 6.33516 14.5387C5.88828 14.0918 5.88828 13.3654 6.33516 12.9185L10.9185 8.33516C11.3654 7.88828 12.0918 7.88828 12.5387 8.33516L17.122 12.9185C17.5689 13.3654 17.5689 14.0918 17.122 14.5387C16.8974 14.761 16.6041 14.8733 16.3108 14.8733Z" fill="#1E579F"/>
<path d="M42.1445 49.0002C41.8511 49.0002 41.5578 48.8879 41.3332 48.6656C40.8863 48.2188 40.8863 47.4923 41.3332 47.0454L45.1053 43.2733L41.3332 39.5013C40.8863 39.0544 40.8863 38.3279 41.3332 37.8811C41.7801 37.4342 42.5065 37.4342 42.9534 37.8811L47.5367 42.4644C47.9836 42.9113 47.9836 43.6377 47.5367 44.0846L42.9534 48.6679C42.7311 48.8879 42.4378 49.0002 42.1445 49.0002Z" fill="#1E579F"/>
<path d="M11.7269 43.9998C11.0944 43.9998 10.5811 43.4865 10.5811 42.854V10.7186C10.5811 10.0861 11.0944 9.57275 11.7269 9.57275C12.3594 9.57275 12.8727 10.0861 12.8727 10.7186V42.854C12.8727 43.4865 12.3594 43.9998 11.7269 43.9998Z" fill="#1E579F"/>
<path d="M45.2793 44.4167H12.1439C11.5114 44.4167 10.998 43.9033 10.998 43.2708C10.998 42.6383 11.5114 42.125 12.1439 42.125H45.2793C45.9118 42.125 46.4251 42.6383 46.4251 43.2708C46.4251 43.9033 45.9118 44.4167 45.2793 44.4167Z" fill="#1E579F"/>
<path d="M38.5 19.2777L30 23.9999M30 23.9999L21.5 19.2777M30 23.9999L30 33.5M39 28.0585V19.9414C39 19.5988 39 19.4274 38.9495 19.2746C38.9049 19.1395 38.8318 19.0154 38.7354 18.9107C38.6263 18.7924 38.4766 18.7092 38.177 18.5428L30.777 14.4316C30.4934 14.2741 30.3516 14.1953 30.2015 14.1644C30.0685 14.1371 29.9315 14.1371 29.7986 14.1644C29.6484 14.1953 29.5066 14.2741 29.223 14.4316L21.823 18.5428C21.5234 18.7092 21.3737 18.7924 21.2646 18.9107C21.1682 19.0154 21.0951 19.1395 21.0505 19.2746C21 19.4274 21 19.5988 21 19.9414V28.0585C21 28.4012 21 28.5725 21.0505 28.7253C21.0951 28.8605 21.1682 28.9845 21.2646 29.0892C21.3737 29.2076 21.5234 29.2908 21.823 29.4572L29.223 33.5683C29.5066 33.7258 29.6484 33.8046 29.7986 33.8355C29.9315 33.8628 30.0685 33.8628 30.2015 33.8355C30.3516 33.8046 30.4934 33.7258 30.777 33.5683L38.177 29.4572C38.4766 29.2908 38.6263 29.2076 38.7354 29.0892C38.8318 28.9845 38.9049 28.8605 38.9495 28.7253C39 28.5725 39 28.4012 39 28.0585Z" stroke="#1E579F" stroke-width="2" stroke-linecap="round" stroke-linejoin="round"/>
</svg>
