<svg width="37" height="37" viewBox="0 0 37 37" fill="none" xmlns="http://www.w3.org/2000/svg">
<path d="M32.375 17.7292V13.5667C32.375 10.9765 32.375 9.68134 31.8709 8.692C31.4275 7.82175 30.72 7.11422 29.8497 6.6708C28.8604 6.16671 27.5652 6.16671 24.975 6.16671H12.025C9.43476 6.16671 8.13964 6.16671 7.15029 6.6708C6.28004 7.11422 5.57251 7.82175 5.12909 8.692C4.625 9.68134 4.625 10.9765 4.625 13.5667V26.5167C4.625 29.1069 4.625 30.4021 5.12909 31.3914C5.57251 32.2617 6.28004 32.9692 7.15029 33.4126C8.13964 33.9167 9.43476 33.9167 12.025 33.9167L30.5 33.9167M32.375 15.4167H4.625M24.6667 3.08337V9.25004M12.3333 3.08337V9.25004" stroke="#2361A9" stroke-width="2" stroke-linecap="round" stroke-linejoin="round"/>
<path d="M9.85397 22C10.8779 22 11.7079 22.8301 11.7079 23.854V29.0055C11.7079 29.5547 11.2627 30 10.7134 30C10.1642 30 9.71891 29.5547 9.71891 29.0055V24.3452C9.71891 23.8705 9.33412 23.4857 8.85946 23.4857H8.74286C8.33259 23.4857 8 23.1531 8 22.7429C8 22.3326 8.33259 22 8.74286 22H9.85397Z" fill="#2361A9"/>
<path d="M14.9076 22C15.9315 22 16.7616 22.8301 16.7616 23.854V29.0055C16.7616 29.5547 16.3163 30 15.7671 30C15.2178 30 14.7725 29.5547 14.7725 29.0055V24.3452C14.7725 23.8705 14.3877 23.4857 13.9131 23.4857H13.7965C13.3862 23.4857 13.0536 23.1531 13.0536 22.7429C13.0536 22.3326 13.3862 22 13.7965 22H14.9076Z" fill="#2361A9"/>
<path d="M18.6598 26.7829C18.6598 26.3884 18.9796 26.0686 19.374 26.0686H21.4201C21.8146 26.0686 22.1344 26.3884 22.1344 26.7829C22.1344 27.1773 21.8146 27.4971 21.4201 27.4971H19.374C18.9796 27.4971 18.6598 27.1773 18.6598 26.7829Z" fill="#2361A9"/>
<path d="M24.6791 22C25.7031 22 26.5331 22.8301 26.5331 23.854V29.0055C26.5331 29.5547 26.0878 30 25.5386 30C24.9893 30 24.5441 29.5547 24.5441 29.0055V24.3452C24.5441 23.8705 24.1593 23.4857 23.6846 23.4857H23.568C23.1577 23.4857 22.8252 23.1531 22.8252 22.7429C22.8252 22.3326 23.1577 22 23.568 22H24.6791Z" fill="#2361A9"/>
<path d="M34.0188 22C34.5607 22 35 22.4393 35 22.9812C35 23.1253 34.9682 23.2676 34.907 23.3981L32.0709 29.4395C31.9103 29.7816 31.5664 30 31.1885 30C30.4726 30 30.001 29.254 30.308 28.6073L32.7286 23.5086H30.5315C30.1717 23.5086 29.8801 23.8002 29.8801 24.16C29.8801 24.5198 29.5884 24.8114 29.2287 24.8114H28.9961C28.5079 24.8114 28.1121 24.4156 28.1121 23.9274V23.4057C28.1121 22.6294 28.7414 22 29.5178 22H34.0188Z" fill="#2361A9"/>
</svg>
