<svg width="52" height="52" viewBox="0 0 52 52" fill="none" xmlns="http://www.w3.org/2000/svg">
<path d="M22.7916 11.6713L15 16M15 16L7.2083 11.6713M15 16L15 24.7084M23.25 19.7204V12.2797C23.25 11.9656 23.25 11.8086 23.2037 11.6685C23.1628 11.5446 23.0959 11.4308 23.0074 11.3349C22.9075 11.2264 22.7702 11.1501 22.4956 10.9976L15.7123 7.22908C15.4523 7.08465 15.3223 7.01244 15.1847 6.98413C15.0628 6.95907 14.9372 6.95907 14.8153 6.98413C14.6777 7.01244 14.5477 7.08465 14.2877 7.22908L7.50439 10.9976C7.22983 11.1501 7.09254 11.2264 6.99258 11.3349C6.90414 11.4308 6.83722 11.5446 6.79628 11.6685C6.75 11.8086 6.75 11.9656 6.75 12.2797V19.7204C6.75 20.0345 6.75 20.1915 6.79628 20.3316C6.83722 20.4555 6.90414 20.5692 6.99258 20.6652C7.09255 20.7737 7.22983 20.8499 7.50439 21.0025L14.2877 24.771C14.5477 24.9154 14.6777 24.9876 14.8153 25.0159C14.9372 25.041 15.0628 25.041 15.1847 25.0159C15.3223 24.9876 15.4523 24.9154 15.7123 24.771L22.4956 21.0025C22.7702 20.8499 22.9075 20.7737 23.0074 20.6652C23.0959 20.5692 23.1628 20.4555 23.2037 20.3316C23.25 20.1915 23.25 20.0345 23.25 19.7204Z" stroke="#2361A9" stroke-width="2" stroke-linecap="round" stroke-linejoin="round"/>
<path d="M46.7916 34.6713L39 39M39 39L31.2083 34.6713M39 39L39 47.7084M47.25 42.7204V35.2797C47.25 34.9656 47.25 34.8086 47.2037 34.6685C47.1628 34.5446 47.0959 34.4308 47.0074 34.3349C46.9075 34.2264 46.7702 34.1501 46.4956 33.9976L39.7123 30.2291C39.4523 30.0847 39.3223 30.0124 39.1847 29.9841C39.0628 29.9591 38.9372 29.9591 38.8153 29.9841C38.6777 30.0124 38.5477 30.0847 38.2877 30.2291L31.5044 33.9976C31.2298 34.1501 31.0925 34.2264 30.9926 34.3349C30.9041 34.4308 30.8372 34.5446 30.7963 34.6685C30.75 34.8086 30.75 34.9656 30.75 35.2797V42.7204C30.75 43.0345 30.75 43.1915 30.7963 43.3316C30.8372 43.4555 30.9041 43.5692 30.9926 43.6652C31.0925 43.7737 31.2298 43.8499 31.5044 44.0025L38.2877 47.771C38.5477 47.9154 38.6777 47.9876 38.8153 48.0159C38.9372 48.041 39.0628 48.041 39.1847 48.0159C39.3223 47.9876 39.4523 47.9154 39.7123 47.771L46.4956 44.0025C46.7702 43.8499 46.9075 43.7737 47.0074 43.6652C47.0959 43.5692 47.1628 43.4555 47.2037 43.3316C47.25 43.1915 47.25 43.0345 47.25 42.7204Z" stroke="#2361A9" stroke-width="2" stroke-linecap="round" stroke-linejoin="round"/>
<path d="M26.2273 20H26.7011C30.025 20 31.687 20 32.3178 20.6416C32.8632 21.1963 33.1048 22.0134 32.9576 22.8047C32.7873 23.7201 31.4304 24.7516 28.7168 26.8147L24.2832 30.1853C21.5696 32.2484 20.2127 33.2799 20.0424 34.1953C19.8952 34.9866 20.1368 35.8037 20.6822 36.3584C21.3131 37 22.975 37 26.2989 37H27.3181" stroke="#2361A9" stroke-width="2" stroke-linecap="round" stroke-linejoin="round"/>
</svg>
