<svg width="36" height="36" viewBox="0 0 36 36" fill="none" xmlns="http://www.w3.org/2000/svg">
<g clip-path="url(#clip0_4535_12032)">
<path d="M34.9485 28.3367L32.2817 13.2417C31.7296 10.1173 29.0262 7.84969 25.8536 7.84969H22.0807C22.6512 7.03884 22.9875 6.05201 22.9875 4.98748C22.9875 2.23741 20.75 0 17.9999 0C15.2499 0 13.0124 2.23741 13.0124 4.98755C13.0124 6.05208 13.3487 7.03891 13.9191 7.84976H10.1463C6.97366 7.84976 4.27022 10.1174 3.71819 13.2417L1.05138 28.3367C0.714795 30.2421 1.23497 32.185 2.47837 33.6674C3.72185 35.1499 5.54463 36 7.47956 36H28.5204C30.4554 36 32.2781 35.1498 33.5216 33.6675C34.765 32.1851 35.285 30.2421 34.9485 28.3367ZM17.9999 2.12534C19.5782 2.12534 20.8621 3.40931 20.8621 4.98755C20.8621 6.56578 19.5781 7.84976 17.9999 7.84976C16.4218 7.84976 15.1377 6.56578 15.1377 4.98755C15.1377 3.40931 16.4217 2.12534 17.9999 2.12534ZM31.8932 32.3016C31.0546 33.3013 29.8253 33.8747 28.5204 33.8747H7.47956C6.1747 33.8747 4.94536 33.3013 4.10681 32.3016C3.26826 31.3018 2.9174 29.9914 3.14444 28.7065L5.81126 13.6115C6.18356 11.5045 8.00676 9.97502 10.1464 9.97502H25.8537C27.9934 9.97502 29.8166 11.5043 30.1888 13.6114L32.8556 28.7064C33.0826 29.9914 32.7317 31.3018 31.8932 32.3016Z" fill="#1E579F"/>
<path d="M15.8627 28.9999L17.784 27.1869C18.0785 26.9091 18.0705 26.4659 17.7662 26.1969C17.4619 25.9279 16.9765 25.9353 16.682 26.2132L14.5333 28.2407V26.7C14.5333 26.3134 14.19 25.9999 13.7665 25.9999C13.3431 25.9999 12.9998 26.3134 12.9998 26.7V31.2997C12.9998 31.6864 13.3431 31.9999 13.7665 31.9999C14.19 31.9999 14.5333 31.6864 14.5333 31.2997V29.7591L16.682 31.7866C16.8323 31.9285 17.0326 31.9999 17.2331 31.9999C17.425 31.9999 17.6173 31.9344 17.7662 31.8029C18.0705 31.5339 18.0784 31.0907 17.784 30.8128L15.8627 28.9999Z" fill="#1E579F"/>
<path d="M22.3751 28.4977H21.4373C21.0923 28.4977 20.8126 28.8112 20.8126 29.1979C20.8126 29.5846 21.0923 29.8981 21.4373 29.8981H21.7401C21.6805 30.2958 21.3713 30.5998 20.9997 30.5998C20.5858 30.5998 20.2491 30.2224 20.2491 29.7585V28.2417C20.2491 27.7778 20.5858 27.4004 20.9997 27.4004C21.2326 27.4004 21.4485 27.5186 21.5921 27.7248C21.8043 28.0296 22.1969 28.0838 22.4689 27.8459C22.7408 27.6079 22.7892 27.168 22.577 26.8632C22.195 26.3147 21.6201 26.0001 20.9998 26.0001C19.897 26.0001 18.9998 27.0057 18.9998 28.2417V29.7585C18.9998 30.9945 19.897 32.0001 20.9998 32.0001C22.1026 32.0001 22.9998 30.9945 22.9998 29.7585V29.198C22.9998 28.8112 22.7201 28.4977 22.3751 28.4977Z" fill="#1E579F"/>
<path d="M13.77 17.17C14.46 17.17 15.08 17.305 15.63 17.575C16.18 17.835 16.61 18.21 16.92 18.7C17.23 19.19 17.385 19.755 17.385 20.395C17.385 21.075 17.215 21.675 16.875 22.195C16.535 22.705 16.075 23.1 15.495 23.38C14.915 23.66 14.265 23.8 13.545 23.8C12.105 23.8 10.985 23.35 10.185 22.45C9.395 21.55 9 20.26 9 18.58C9 17.4 9.215 16.395 9.645 15.565C10.075 14.725 10.675 14.09 11.445 13.66C12.225 13.22 13.125 13 14.145 13C14.685 13 15.19 13.06 15.66 13.18C15.8709 13.2283 16.0693 13.2873 16.2552 13.3569C16.6411 13.5014 16.7675 13.9558 16.5862 14.3259C16.3731 14.7609 15.8213 14.9059 15.3542 14.7778C15.0067 14.6826 14.6187 14.635 14.19 14.635C13.18 14.635 12.39 14.945 11.82 15.565C11.25 16.185 10.965 17.08 10.965 18.25V18.265C11.275 17.905 11.67 17.635 12.15 17.455C12.63 17.265 13.17 17.17 13.77 17.17ZM13.44 22.27C14.05 22.27 14.545 22.11 14.925 21.79C15.305 21.46 15.495 21.025 15.495 20.485C15.495 19.935 15.305 19.5 14.925 19.18C14.545 18.86 14.035 18.7 13.395 18.7C12.765 18.7 12.25 18.87 11.85 19.21C11.46 19.55 11.265 19.98 11.265 20.5C11.265 21.01 11.455 21.435 11.835 21.775C12.225 22.105 12.76 22.27 13.44 22.27Z" fill="#1E579F"/>
<path d="M21.9893 17.215C23.4693 17.215 24.5643 17.505 25.2743 18.085C25.9843 18.655 26.3393 19.435 26.3393 20.425C26.3393 21.055 26.1843 21.625 25.8743 22.135C25.5643 22.645 25.0993 23.05 24.4793 23.35C23.8593 23.65 23.0943 23.8 22.1843 23.8C21.4343 23.8 20.7093 23.695 20.0093 23.485C19.5723 23.3476 19.1781 23.1791 18.8268 22.9794C18.471 22.7771 18.3823 22.3224 18.5781 21.9629C18.8304 21.4994 19.4462 21.383 19.9214 21.6124C20.0916 21.6945 20.2709 21.7687 20.4593 21.835C21.0093 22.015 21.5743 22.105 22.1543 22.105C22.8443 22.105 23.3843 21.965 23.7743 21.685C24.1743 21.395 24.3743 21 24.3743 20.5C24.3743 19.96 24.1593 19.555 23.7293 19.285C23.3093 19.005 22.5843 18.865 21.5543 18.865H19.0193L19.5593 13.15H24.9068C25.3583 13.15 25.7243 13.516 25.7243 13.9675C25.7243 14.419 25.3583 14.785 24.9068 14.785H21.2093L20.9843 17.215H21.9893Z" fill="#1E579F"/>
</g>
<defs>
<clipPath id="clip0_4535_12032">
<rect width="36" height="36" fill="white"/>
</clipPath>
</defs>
</svg>
