<svg width="36" height="36" viewBox="0 0 36 36" fill="none" xmlns="http://www.w3.org/2000/svg">
<g clip-path="url(#clip0_4535_11986)">
<path d="M34.9485 28.3367L32.2817 13.2417C31.7296 10.1173 29.0262 7.84969 25.8536 7.84969H22.0807C22.6512 7.03884 22.9875 6.05201 22.9875 4.98748C22.9875 2.23741 20.75 0 17.9999 0C15.2499 0 13.0124 2.23741 13.0124 4.98755C13.0124 6.05208 13.3487 7.03891 13.9191 7.84976H10.1463C6.97366 7.84976 4.27022 10.1174 3.71819 13.2417L1.05138 28.3367C0.714795 30.2421 1.23497 32.185 2.47837 33.6674C3.72185 35.1499 5.54463 36 7.47956 36H28.5204C30.4554 36 32.2781 35.1498 33.5216 33.6675C34.765 32.1851 35.285 30.2421 34.9485 28.3367ZM17.9999 2.12534C19.5782 2.12534 20.8621 3.40931 20.8621 4.98755C20.8621 6.56578 19.5781 7.84976 17.9999 7.84976C16.4218 7.84976 15.1377 6.56578 15.1377 4.98755C15.1377 3.40931 16.4217 2.12534 17.9999 2.12534ZM31.8932 32.3016C31.0546 33.3013 29.8253 33.8747 28.5204 33.8747H7.47956C6.1747 33.8747 4.94536 33.3013 4.10681 32.3016C3.26826 31.3018 2.9174 29.9914 3.14444 28.7065L5.81126 13.6115C6.18356 11.5045 8.00676 9.97502 10.1464 9.97502H25.8537C27.9934 9.97502 29.8166 11.5043 30.1888 13.6114L32.8556 28.7064C33.0826 29.9914 32.7317 31.3018 31.8932 32.3016Z" fill="#1E579F"/>
<path d="M15.8627 28.9998L17.784 27.1869C18.0785 26.909 18.0705 26.4658 17.7662 26.1969C17.4619 25.9279 16.9765 25.9353 16.682 26.2131L14.5333 28.2406V26.7C14.5333 26.3133 14.19 25.9998 13.7665 25.9998C13.3431 25.9998 12.9998 26.3133 12.9998 26.7V31.2997C12.9998 31.6863 13.3431 31.9998 13.7665 31.9998C14.19 31.9998 14.5333 31.6863 14.5333 31.2997V29.759L16.682 31.7865C16.8323 31.9285 17.0326 31.9998 17.2331 31.9998C17.425 31.9998 17.6173 31.9344 17.7662 31.8028C18.0705 31.5339 18.0784 31.0907 17.784 30.8128L15.8627 28.9998Z" fill="#1E579F"/>
<path d="M22.3751 28.4977H21.4373C21.0923 28.4977 20.8126 28.8112 20.8126 29.1979C20.8126 29.5846 21.0923 29.8981 21.4373 29.8981H21.7401C21.6805 30.2958 21.3713 30.5998 20.9997 30.5998C20.5858 30.5998 20.2491 30.2224 20.2491 29.7585V28.2417C20.2491 27.7778 20.5858 27.4004 20.9997 27.4004C21.2326 27.4004 21.4485 27.5186 21.5921 27.7248C21.8043 28.0296 22.1969 28.0838 22.4689 27.8459C22.7408 27.6079 22.7892 27.168 22.577 26.8632C22.195 26.3147 21.6201 26.0001 20.9998 26.0001C19.897 26.0001 18.9998 27.0057 18.9998 28.2417V29.7585C18.9998 30.9945 19.897 32.0001 20.9998 32.0001C22.1026 32.0001 22.9998 30.9945 22.9998 29.7585V29.198C22.9998 28.8112 22.7201 28.4977 22.3751 28.4977Z" fill="#1E579F"/>
<path d="M22.8808 24C22.0252 24 21.2613 23.7861 20.5891 23.3583C19.9169 22.9204 19.3873 22.2889 19.0002 21.4639C18.6132 20.6287 18.4197 19.6407 18.4197 18.5C18.4197 17.3593 18.6132 16.3764 19.0002 15.5514C19.3873 14.7162 19.9169 14.0847 20.5891 13.6569C21.2613 13.219 22.0252 13 22.8808 13C23.7363 13 24.5002 13.219 25.1725 13.6569C25.8549 14.0847 26.3896 14.7162 26.7766 15.5514C27.1637 16.3764 27.3572 17.3593 27.3572 18.5C27.3572 19.6407 27.1637 20.6287 26.7766 21.4639C26.3896 22.2889 25.8549 22.9204 25.1725 23.3583C24.5002 23.7861 23.7363 24 22.8808 24ZM22.8808 22.2736C23.6447 22.2736 24.2456 21.9579 24.6836 21.3264C25.1317 20.6949 25.3558 19.7528 25.3558 18.5C25.3558 17.2472 25.1317 16.3051 24.6836 15.6736C24.2456 15.0421 23.6447 14.7264 22.8808 14.7264C22.1271 14.7264 21.5262 15.0421 21.078 15.6736C20.64 16.3051 20.4211 17.2472 20.4211 18.5C20.4211 19.7528 20.64 20.6949 21.078 21.3264C21.5262 21.9579 22.1271 22.2736 22.8808 22.2736Z" fill="#1E579F"/>
<path d="M13.7752 17.5679C14.7631 17.6901 15.5168 18.0263 16.0363 18.5763C16.5557 19.1263 16.8154 19.8138 16.8154 20.6388C16.8154 21.2601 16.6576 21.8253 16.3418 22.3346C16.0261 22.8438 15.5474 23.2513 14.9057 23.5568C14.2742 23.8522 13.5002 23.9999 12.5835 23.9999C11.8196 23.9999 11.0812 23.8929 10.3682 23.679C9.93033 23.5394 9.532 23.3682 9.17321 23.1653C8.80763 22.9586 8.7157 22.4914 8.91934 22.1241C9.17922 21.6553 9.80716 21.5429 10.2897 21.7761C10.459 21.858 10.638 21.9321 10.8265 21.9985C11.3867 22.1818 11.9622 22.2735 12.5529 22.2735C13.2557 22.2735 13.8057 22.1309 14.2029 21.8457C14.6103 21.5503 14.814 21.1531 14.814 20.654C14.814 20.155 14.6205 19.7679 14.2335 19.4929C13.8566 19.2077 13.2761 19.0651 12.4918 19.0651C11.9518 19.0651 11.514 18.6274 11.514 18.0874V18.0688C11.514 17.8341 11.5969 17.607 11.748 17.4274L13.9432 14.8179H9.91751C9.45766 14.8179 9.08487 14.4451 9.08487 13.9853C9.08487 13.5254 9.45766 13.1526 9.91751 13.1526H15.3985C15.9363 13.1526 16.3724 13.5887 16.3724 14.1265C16.3724 14.356 16.2914 14.5781 16.1436 14.7536L13.7752 17.5679Z" fill="#1E579F"/>
</g>
<defs>
<clipPath id="clip0_4535_11986">
<rect width="36" height="36" fill="white"/>
</clipPath>
</defs>
</svg>
