<svg width="120" height="31" viewBox="0 0 120 31" fill="none" xmlns="http://www.w3.org/2000/svg">
<g clip-path="url(#clip0_4535_11422)">
<path d="M20.432 30.0173L26.2431 6.59516L27.8005 30.5085H34.3206L32.3332 0.0116936H22.1521L17.1661 20.5105L12.1685 0.0116936H1.98741L0 30.5085H6.5201L8.07748 6.59516L13.8886 30.0173H20.432ZM107.564 11.5649H111.492L112.852 9.05081L111.504 6.58347H107.564V11.5649ZM96.3254 11.5649H99.7656V21.446C99.7656 26.6379 101.067 30.5085 106.762 30.5085C108.819 30.5085 110.528 29.9823 111.492 29.5964V24.0536C108.087 24.6968 106.425 24.9073 106.425 20.3468V0H99.7656V6.59516H96.8484L96.3254 11.5649ZM65.0383 20.5222C65.4915 26.2754 74.3942 25.2698 78.2412 24.0536L79.1942 29.0234C70.1869 32.4847 58.1695 30.2278 58.1695 18.4407C58.1695 2.73629 80.4843 1.02903 80.4843 17.6222C80.4843 18.8734 80.3448 19.9843 80.2518 20.5105H65.0383V20.5222ZM73.7317 15.5056C73.7317 9.01573 65.0266 8.92218 65.0847 15.5056H73.7317ZM87.9806 12.9097C87.9806 9.91613 93.5128 10.8867 95.1864 11.5649L95.6978 6.59516C90.0959 4.85282 81.4024 6.15081 81.414 13.5762C81.2978 20.8964 92.0136 19.8907 92.0136 23.3754C92.0136 27.0472 83.6223 25.1645 81.7976 24.0536L80.8445 29.0351C87.0741 31.8065 98.9172 31.1867 98.6034 22.8726C98.4988 14.7923 87.9806 16.219 87.9806 12.9097Z" fill="#0056A4"/>
<path d="M41.5731 20.5222C42.0264 26.2754 50.929 25.2698 54.776 24.0536L55.729 29.0234C46.7218 32.4847 34.7043 30.2278 34.7043 18.4407C34.7043 2.73628 57.0191 1.02902 57.0191 17.6222C57.0191 18.8734 56.8796 19.9843 56.7867 20.5105H41.5731V20.5222ZM50.2666 15.5056C50.2666 9.01572 41.5615 8.92217 41.6196 15.5056H50.2666Z" fill="#E40137"/>
<path d="M115.049 0L120 9.05081L115.049 18.1601H110.098L115.049 9.05081L110.098 0H115.049Z" fill="#E40137"/>
</g>
<defs>
<clipPath id="clip0_4535_11422">
<rect width="120" height="30.5085" fill="white"/>
</clipPath>
</defs>
</svg>
