<svg width="40" height="40" viewBox="0 0 40 40" fill="none" xmlns="http://www.w3.org/2000/svg">
<path d="M19.1666 8.33331H19.8906C24.9693 8.33331 27.5087 8.33331 28.4726 9.24546C29.3059 10.0339 29.6752 11.1954 29.4502 12.3203C29.1899 13.6217 27.1168 15.0881 22.9704 18.0209L16.1961 22.8124C12.0498 25.7452 9.97656 27.2116 9.71631 28.513C9.49135 29.6378 9.86061 30.7994 10.6939 31.5878C11.6578 32.5 14.1972 32.5 19.2759 32.5H20.8333M13.3333 8.33331C13.3333 11.0947 11.0947 13.3333 8.33325 13.3333C5.57183 13.3333 3.33325 11.0947 3.33325 8.33331C3.33325 5.57189 5.57183 3.33331 8.33325 3.33331C11.0947 3.33331 13.3333 5.57189 13.3333 8.33331Z" stroke="#1E579F" stroke-width="2" stroke-linecap="round" stroke-linejoin="round"/>
<path d="M37.5208 26.1551L31.5 29.5M31.5 29.5L25.4791 26.1551M31.5 29.5L31.5 36.2291M37.875 32.3748V26.6252C37.875 26.3825 37.875 26.2611 37.8392 26.1529C37.8076 26.0571 37.7559 25.9692 37.6876 25.8951C37.6103 25.8113 37.5042 25.7523 37.2921 25.6345L32.0504 22.7224C31.8495 22.6108 31.7491 22.555 31.6427 22.5331C31.5486 22.5138 31.4515 22.5138 31.3573 22.5331C31.2509 22.555 31.1505 22.6108 30.9496 22.7224L25.7079 25.6345C25.4958 25.7523 25.3897 25.8113 25.3124 25.8951C25.2441 25.9692 25.1924 26.0571 25.1608 26.1529C25.125 26.2611 25.125 26.3825 25.125 26.6252V32.3748C25.125 32.6175 25.125 32.7388 25.1608 32.8471C25.1924 32.9428 25.2441 33.0307 25.3124 33.1049C25.3897 33.1887 25.4958 33.2476 25.7079 33.3655L30.9496 36.2775C31.1505 36.3891 31.2509 36.4449 31.3573 36.4668C31.4515 36.4862 31.5486 36.4862 31.6427 36.4668C31.7491 36.4449 31.8495 36.3891 32.0504 36.2775L37.2921 33.3655C37.5042 33.2476 37.6103 33.1887 37.6876 33.1049C37.7559 33.0307 37.8076 32.9428 37.8392 32.8471C37.875 32.7388 37.875 32.6175 37.875 32.3748Z" stroke="#1E579F" stroke-width="2" stroke-linecap="round" stroke-linejoin="round"/>
</svg>
